<svg width="34" height="35" viewBox="0 0 34 35" fill="none" xmlns="http://www.w3.org/2000/svg">
<rect x="0.5" y="0.882812" width="33" height="33" rx="7.5" fill="#060B27"/>
<rect x="0.5" y="0.882812" width="33" height="33" rx="7.5" stroke="#282D45"/>
<path d="M19.56 17.3828C19.56 17.8891 19.4099 18.3841 19.1286 18.8051C18.8473 19.2261 18.4474 19.5542 17.9797 19.7479C17.5119 19.9417 16.9972 19.9924 16.5006 19.8936C16.004 19.7948 15.5478 19.551 15.1898 19.193C14.8318 18.835 14.588 18.3788 14.4892 17.8822C14.3904 17.3857 14.4411 16.8709 14.6349 16.4031C14.8286 15.9354 15.1568 15.5355 15.5777 15.2543C15.9987 14.973 16.4937 14.8228 17 14.8228C17.6783 14.8249 18.3282 15.0953 18.8079 15.5749C19.2875 16.0546 19.5579 16.7045 19.56 17.3828ZM25 13.8628V20.9028C25 22.091 24.528 23.2305 23.6878 24.0707C22.8477 24.9108 21.7082 25.3828 20.52 25.3828H13.48C12.2918 25.3828 11.1523 24.9108 10.3122 24.0707C9.472 23.2305 9 22.091 9 20.9028V13.8628C9 12.6746 9.472 11.5351 10.3122 10.695C11.1523 9.85481 12.2918 9.38281 13.48 9.38281H20.52C21.7082 9.38281 22.8477 9.85481 23.6878 10.695C24.528 11.5351 25 12.6746 25 13.8628ZM20.84 17.3828C20.84 16.6233 20.6148 15.8809 20.1928 15.2494C19.7709 14.6179 19.1712 14.1258 18.4695 13.8351C17.7678 13.5445 16.9957 13.4684 16.2509 13.6166C15.506 13.7648 14.8217 14.1305 14.2847 14.6675C13.7477 15.2046 13.382 15.8888 13.2338 16.6337C13.0856 17.3786 13.1617 18.1506 13.4523 18.8523C13.7429 19.554 14.2351 20.1537 14.8666 20.5757C15.4981 20.9976 16.2405 21.2228 17 21.2228C18.0184 21.2228 18.9952 20.8182 19.7153 20.0981C20.4354 19.378 20.84 18.4012 20.84 17.3828ZM22.12 13.2228C22.12 13.0329 22.0637 12.8473 21.9582 12.6895C21.8527 12.5316 21.7028 12.4085 21.5274 12.3359C21.352 12.2632 21.1589 12.2442 20.9727 12.2813C20.7865 12.3183 20.6154 12.4097 20.4812 12.544C20.3469 12.6782 20.2555 12.8493 20.2184 13.0355C20.1814 13.2217 20.2004 13.4148 20.2731 13.5902C20.3457 13.7656 20.4688 13.9155 20.6267 14.021C20.7845 14.1265 20.9701 14.1828 21.16 14.1828C21.4146 14.1828 21.6588 14.0817 21.8388 13.9016C22.0189 13.7216 22.12 13.4774 22.12 13.2228Z" fill="white"/>
</svg>
