<svg width="34" height="35" viewBox="0 0 34 35" fill="none" xmlns="http://www.w3.org/2000/svg">
<rect x="0.5" y="0.882812" width="33" height="33" rx="7.5" fill="#060B27"/>
<rect x="0.5" y="0.882812" width="33" height="33" rx="7.5" stroke="#282D45"/>
<path d="M12.5677 11.1614C12.5674 11.6329 12.3793 12.0849 12.0446 12.4181C11.7099 12.7513 11.2561 12.9384 10.7829 12.9382C10.3098 12.9379 9.85621 12.7504 9.52184 12.4169C9.18748 12.0833 8.99976 11.6311 9 11.1596C9.00024 10.6881 9.1884 10.2361 9.52311 9.90285C9.85781 9.56964 10.3116 9.38258 10.7847 9.38281C11.2578 9.38305 11.7115 9.57057 12.0458 9.90411C12.3802 10.2377 12.5679 10.6899 12.5677 11.1614ZM12.6212 14.2545H9.05352V25.3828H12.6212V14.2545ZM18.2581 14.2545H14.7083V25.3828H18.2225V19.5431C18.2225 16.29 22.4769 15.9878 22.4769 19.5431V25.3828H26V18.3343C26 12.8502 19.703 13.0546 18.2225 15.7478L18.2581 14.2545Z" fill="white"/>
</svg>
