<svg width="22" height="22" viewBox="0 0 22 22" fill="none" xmlns="http://www.w3.org/2000/svg">
<g clip-path="url(#clip0_1531_1247)">
<path d="M12.3749 1.37499C12.3749 2.13439 11.7594 2.74999 11 2.74999C10.2406 2.74999 9.625 2.13439 9.625 1.37499C9.625 0.615605 10.2406 0 11 0C11.7594 0 12.3749 0.615605 12.3749 1.37499Z" fill="url(#paint0_linear_1531_1247)"/>
<path fill-rule="evenodd" clip-rule="evenodd" d="M11 16.4999C14.0376 16.4999 16.4999 14.0376 16.4999 11C16.4999 7.96243 14.0376 5.5 11 5.5C7.96243 5.5 5.5 7.96243 5.5 11C5.5 14.0376 7.96243 16.4999 11 16.4999ZM11 13.7499C12.5188 13.7499 13.7499 12.5188 13.7499 11C13.7499 9.4812 12.5188 8.24999 11 8.24999C9.4812 8.24999 8.24999 9.4812 8.24999 11C8.24999 12.5188 9.4812 13.7499 11 13.7499Z" fill="url(#paint1_linear_1531_1247)"/>
<path d="M17.875 5.49998C18.6344 5.49998 19.25 4.88437 19.25 4.12499C19.25 3.3656 18.6344 2.75 17.875 2.75C17.1157 2.75 16.5 3.3656 16.5 4.12499C16.5 4.88437 17.1157 5.49998 17.875 5.49998Z" fill="url(#paint2_linear_1531_1247)"/>
<path d="M5.49998 4.12499C5.49998 4.88437 4.88437 5.49998 4.12499 5.49998C3.3656 5.49998 2.75 4.88437 2.75 4.12499C2.75 3.3656 3.3656 2.75 4.12499 2.75C4.88437 2.75 5.49998 3.3656 5.49998 4.12499Z" fill="url(#paint3_linear_1531_1247)"/>
<path d="M11 19.25C11.7594 19.25 12.3749 19.8656 12.3749 20.625C12.3749 21.3844 11.7594 22 11 22C10.2406 22 9.625 21.3844 9.625 20.625C9.625 19.8656 10.2406 19.25 11 19.25Z" fill="url(#paint4_linear_1531_1247)"/>
<path d="M19.25 17.875C19.25 17.1157 18.6344 16.5 17.875 16.5C17.1157 16.5 16.5 17.1157 16.5 17.875C16.5 18.6344 17.1157 19.25 17.875 19.25C18.6344 19.25 19.25 18.6344 19.25 17.875Z" fill="url(#paint5_linear_1531_1247)"/>
<path d="M4.12499 16.5C4.88437 16.5 5.49998 17.1157 5.49998 17.875C5.49998 18.6344 4.88437 19.25 4.12499 19.25C3.3656 19.25 2.75 18.6344 2.75 17.875C2.75 17.1157 3.3656 16.5 4.12499 16.5Z" fill="url(#paint6_linear_1531_1247)"/>
<path d="M2.74999 11C2.74999 11.7594 2.13439 12.3749 1.37499 12.3749C0.615605 12.3749 0 11.7594 0 11C0 10.2406 0.615605 9.625 1.37499 9.625C2.13439 9.625 2.74999 10.2406 2.74999 11Z" fill="url(#paint7_linear_1531_1247)"/>
<path d="M20.625 12.3749C21.3844 12.3749 22 11.7594 22 11C22 10.2406 21.3844 9.625 20.625 9.625C19.8656 9.625 19.25 10.2406 19.25 11C19.25 11.7594 19.8656 12.3749 20.625 12.3749Z" fill="url(#paint8_linear_1531_1247)"/>
</g>
<defs>
<linearGradient id="paint0_linear_1531_1247" x1="-2.11795" y1="-0.743758" x2="-2.11795" y2="22.5559" gradientUnits="userSpaceOnUse">
<stop stop-color="white"/>
<stop offset="1" stop-color="white" stop-opacity="0.72"/>
</linearGradient>
<linearGradient id="paint1_linear_1531_1247" x1="-2.11797" y1="-0.743726" x2="-2.11797" y2="22.556" gradientUnits="userSpaceOnUse">
<stop stop-color="white"/>
<stop offset="1" stop-color="white" stop-opacity="0.72"/>
</linearGradient>
<linearGradient id="paint2_linear_1531_1247" x1="-2.1179" y1="-0.743748" x2="-2.1179" y2="22.556" gradientUnits="userSpaceOnUse">
<stop stop-color="white"/>
<stop offset="1" stop-color="white" stop-opacity="0.72"/>
</linearGradient>
<linearGradient id="paint3_linear_1531_1247" x1="-2.118" y1="-0.743748" x2="-2.118" y2="22.556" gradientUnits="userSpaceOnUse">
<stop stop-color="white"/>
<stop offset="1" stop-color="white" stop-opacity="0.72"/>
</linearGradient>
<linearGradient id="paint4_linear_1531_1247" x1="-2.11795" y1="-0.743649" x2="-2.11795" y2="22.556" gradientUnits="userSpaceOnUse">
<stop stop-color="white"/>
<stop offset="1" stop-color="white" stop-opacity="0.72"/>
</linearGradient>
<linearGradient id="paint5_linear_1531_1247" x1="-2.1179" y1="-0.743654" x2="-2.1179" y2="22.5561" gradientUnits="userSpaceOnUse">
<stop stop-color="white"/>
<stop offset="1" stop-color="white" stop-opacity="0.72"/>
</linearGradient>
<linearGradient id="paint6_linear_1531_1247" x1="-2.118" y1="-0.743654" x2="-2.118" y2="22.5561" gradientUnits="userSpaceOnUse">
<stop stop-color="white"/>
<stop offset="1" stop-color="white" stop-opacity="0.72"/>
</linearGradient>
<linearGradient id="paint7_linear_1531_1247" x1="-2.11801" y1="-0.743701" x2="-2.11801" y2="22.556" gradientUnits="userSpaceOnUse">
<stop stop-color="white"/>
<stop offset="1" stop-color="white" stop-opacity="0.72"/>
</linearGradient>
<linearGradient id="paint8_linear_1531_1247" x1="-2.1179" y1="-0.743701" x2="-2.1179" y2="22.556" gradientUnits="userSpaceOnUse">
<stop stop-color="white"/>
<stop offset="1" stop-color="white" stop-opacity="0.72"/>
</linearGradient>
<clipPath id="clip0_1531_1247">
<rect width="22" height="22" fill="white"/>
</clipPath>
</defs>
</svg>
