<svg width="37" height="36" viewBox="0 0 37 36" fill="none" xmlns="http://www.w3.org/2000/svg">
<path d="M23.3223 18.7201C23.4243 18.7808 23.5503 18.8519 23.693 18.9324C24.3181 19.285 25.2631 19.8182 25.9105 20.4518C26.3153 20.8481 26.7 21.3703 26.7699 22.0102C26.8443 22.6906 26.5475 23.3291 25.952 23.8964C24.9247 24.8751 23.6918 25.6595 22.0972 25.6595H14.3637C12.7691 25.6595 11.5362 24.8751 10.5089 23.8964C9.91339 23.3291 9.61656 22.6906 9.69094 22.0102C9.76087 21.3703 10.1456 20.8481 10.5504 20.4518C11.1978 19.8182 12.1428 19.285 12.7679 18.9324C12.9105 18.852 13.0365 18.7808 13.1385 18.7201C16.2554 16.8641 20.2055 16.8641 23.3223 18.7201Z" fill="#4770FF"/>
<path opacity="0.4" d="M13.625 11.4089C13.625 8.86604 15.6864 6.80469 18.2292 6.80469C20.772 6.80469 22.8333 8.86604 22.8333 11.4089C22.8333 13.9517 20.772 16.013 18.2292 16.013C15.6864 16.013 13.625 13.9517 13.625 11.4089Z" fill="#4770FF"/>
<g filter="url(#filter0_f_1531_1382)">
<circle cx="18.4445" cy="18.6711" r="4.82341" fill="#4871FE"/>
</g>
<defs>
<filter id="filter0_f_1531_1382" x="0.560775" y="0.787337" width="35.7671" height="35.7671" filterUnits="userSpaceOnUse" color-interpolation-filters="sRGB">
<feFlood flood-opacity="0" result="BackgroundImageFix"/>
<feBlend mode="normal" in="SourceGraphic" in2="BackgroundImageFix" result="shape"/>
<feGaussianBlur stdDeviation="6.53016" result="effect1_foregroundBlur_1531_1382"/>
</filter>
</defs>
</svg>
