<svg width="79" height="79" viewBox="0 0 79 79" fill="none" xmlns="http://www.w3.org/2000/svg">
<g opacity="0.52" filter="url(#filter0_f_1531_2505)">
<circle cx="39.4905" cy="39.4893" r="31.7228" transform="rotate(15 39.4905 39.4893)" fill="url(#paint0_linear_1531_2505)" fill-opacity="0.15" stroke="url(#paint1_linear_1531_2505)" stroke-width="1.04009"/>
<path d="M52.2771 49.0334C53.4473 47.5164 54.324 45.7916 54.8624 43.7823C55.2501 42.3356 55.3976 40.8892 55.3554 39.4996C53.9514 39.4464 52.5239 39.2362 51.0785 38.8489C48.1175 38.0589 45.3874 36.5778 43.1183 34.5306C40.8491 32.4834 39.1075 29.93 38.0402 27.0856C35.0473 30.9585 30.6622 33.5435 25.7834 34.3108C25.5674 34.7914 25.422 35.3339 25.2821 35.8563C24.768 37.7746 24.6419 39.7767 24.9108 41.7483C25.1797 43.7198 25.8384 45.6223 26.8493 47.347C28.8909 50.8302 32.243 53.3779 36.1683 54.4297C38.3059 55.0024 40.4859 55.0912 42.5593 54.7638C43.1328 57.2649 43.3714 58.4917 43.3307 58.4808C39.6958 58.6913 36.965 58.5411 35.1938 58.0665C30.2672 56.7464 26.0759 53.5775 23.5357 49.2142C21.9833 46.5799 21.1 43.6159 20.9621 40.578L18.2545 39.8525L20.7042 30.7102L22.9232 31.3047C24.461 28.255 26.8078 25.6791 29.7148 23.8504C32.6218 22.0218 35.9804 21.0085 39.4342 20.9183C42.8881 20.828 46.3084 21.6641 49.3322 23.3377C52.356 25.0114 54.8704 27.4602 56.6088 30.4244C58.4975 33.6344 59.3855 37.3196 59.1607 41.0145L61.4204 41.62L58.9708 50.7624L58.8486 50.7296L49.8406 55.3581L39.3738 51.2614L40.2729 47.9059L50.1059 50.5406L52.2771 49.0334ZM34.6485 37.8707C35.2592 38.0343 35.785 38.4336 36.0941 38.9902C36.4092 39.5329 36.4955 40.1753 36.3341 40.7774C36.1728 41.3796 35.7769 41.8927 35.2327 42.2051C34.6921 42.5125 34.0371 42.5955 33.4263 42.4318C32.1438 42.0881 31.3747 40.8053 31.7139 39.5394C32.0531 38.2736 33.3659 37.527 34.6485 37.8707ZM45.7437 40.8436C47.0262 41.1873 47.7696 42.4848 47.4304 43.7506C47.0912 45.0165 45.8041 45.7484 44.5215 45.4048C43.239 45.0611 42.4699 43.7782 42.8091 42.5124C42.9719 41.9049 43.3725 41.3878 43.9228 41.0748C44.4732 40.7619 45.1281 40.6787 45.7437 40.8436Z" fill="url(#paint2_linear_1531_2505)"/>
</g>
<defs>
<filter id="filter0_f_1531_2505" x="6.20014" y="6.19819" width="66.5821" height="66.5821" filterUnits="userSpaceOnUse" color-interpolation-filters="sRGB">
<feFlood flood-opacity="0" result="BackgroundImageFix"/>
<feBlend mode="normal" in="SourceGraphic" in2="BackgroundImageFix" result="shape"/>
<feGaussianBlur stdDeviation="0.520046" result="effect1_foregroundBlur_1531_2505"/>
</filter>
<linearGradient id="paint0_linear_1531_2505" x1="39.4905" y1="7.24641" x2="39.4905" y2="71.7321" gradientUnits="userSpaceOnUse">
<stop stop-color="white"/>
<stop offset="1" stop-color="#040810"/>
</linearGradient>
<linearGradient id="paint1_linear_1531_2505" x1="39.4905" y1="7.24641" x2="39.4905" y2="71.7321" gradientUnits="userSpaceOnUse">
<stop stop-color="#E3EFFF"/>
<stop offset="1" stop-color="#040810"/>
</linearGradient>
<linearGradient id="paint2_linear_1531_2505" x1="44.9714" y1="21.576" x2="35.1938" y2="58.0665" gradientUnits="userSpaceOnUse">
<stop stop-color="#E3EFFF"/>
<stop offset="1" stop-color="#040810"/>
</linearGradient>
</defs>
</svg>
