<svg width="79" height="79" viewBox="0 0 79 79" fill="none" xmlns="http://www.w3.org/2000/svg">
<g opacity="0.52" filter="url(#filter0_f_1531_2508)">
<circle cx="39.4905" cy="39.4893" r="31.7228" transform="rotate(15 39.4905 39.4893)" fill="url(#paint0_linear_1531_2508)" fill-opacity="0.15" stroke="url(#paint1_linear_1531_2508)" stroke-width="1.04009"/>
<path d="M47.3587 24.997L47.3587 24.9969C47.4552 24.9672 47.5588 24.9635 47.6585 24.9868C47.7582 25.0102 47.8496 25.0595 47.9231 25.1291C47.9965 25.1987 48.0491 25.2857 48.0762 25.3805C48.1032 25.4753 48.1039 25.5747 48.0787 25.6685L48.0787 25.6687L41.0579 51.8705L41.0579 51.8707C41.0328 51.9646 40.9825 52.0503 40.9117 52.1188C40.8408 52.1874 40.7518 52.2365 40.6534 52.26C40.5549 52.2836 40.4511 52.2806 40.3531 52.251C40.2551 52.2213 40.1672 52.1663 40.0985 52.0923L40.0985 52.0923L32.0538 43.4253L36.0583 28.4804L47.3587 24.997ZM23.4824 50.2866L25.286 43.5555L28.4693 44.4084L26.6657 51.1396C26.5551 51.5524 26.2826 51.9051 25.9061 52.1192C25.5292 52.3335 25.0791 52.3912 24.6549 52.2775C24.2306 52.1638 23.8696 51.8888 23.6504 51.5148C23.4314 51.1411 23.3718 50.6994 23.4824 50.2866ZM21.5701 36.4837L23.2314 30.2835C23.4154 29.5967 23.8687 29.0107 24.4935 28.6554C25.1185 28.3 25.8642 28.2047 26.5661 28.3928L32.3457 29.9415L29.2923 41.3371L23.5126 39.7884C22.8107 39.6004 22.2126 39.1451 21.849 38.5247C21.4856 37.9046 21.386 37.1705 21.5701 36.4837ZM49.9417 39.6556L49.6648 40.689C49.4808 41.3758 49.0275 41.9618 48.4027 42.3171C47.9289 42.5865 47.3859 42.7064 46.8452 42.6668L48.4887 36.533C48.9768 36.769 49.3872 37.1444 49.6628 37.6146C50.0262 38.2347 50.1257 38.9688 49.9417 39.6556Z" fill="url(#paint2_linear_1531_2508)" stroke="url(#paint3_linear_1531_2508)" stroke-width="1.04009"/>
<path d="M58.3663 37.1728L58.3663 37.173C58.39 37.2414 58.3996 37.3133 58.3951 37.3846C58.3906 37.4558 58.3719 37.5253 58.3401 37.5893C58.3083 37.6532 58.2639 37.7106 58.2091 37.7579L58.5493 38.1513L58.2091 37.7579C58.1543 37.8053 58.0901 37.8418 58.02 37.8651L54.3254 39.0902L54.3252 39.0902C54.2551 39.1135 54.1806 39.123 54.1059 39.1178C54.0312 39.1127 53.9581 39.093 53.8909 39.06C53.8237 39.027 53.764 38.9815 53.715 38.9262C53.666 38.8709 53.6288 38.8071 53.6051 38.7387C53.5815 38.6702 53.5718 38.5983 53.5764 38.5271C53.5809 38.4558 53.5996 38.3863 53.6314 38.3223C53.6632 38.2584 53.7076 38.201 53.7624 38.1537L53.4222 37.7603L53.7624 38.1537C53.8171 38.1063 53.8813 38.0698 53.9513 38.0465C53.9513 38.0465 53.9514 38.0465 53.9514 38.0465L57.646 36.8214L57.6462 36.8213C57.7163 36.7981 57.7909 36.7886 57.8656 36.7937C57.9403 36.7989 58.0133 36.8185 58.0805 36.8515C58.1477 36.8845 58.2075 36.93 58.2565 36.9853L58.6427 36.6431L58.2565 36.9853C58.3054 37.0406 58.3426 37.1044 58.3663 37.1728ZM51.5466 46.4211L51.5467 46.421C51.6014 46.3735 51.6655 46.3369 51.7355 46.3135C51.8056 46.2901 51.8801 46.2806 51.9548 46.2856C52.0295 46.2906 52.1026 46.3101 52.1699 46.343C52.2371 46.3759 52.2969 46.4214 52.346 46.4766L52.3461 46.4768L54.9332 49.385C54.9823 49.4402 55.0196 49.5039 55.0434 49.5724C55.0671 49.6408 55.0769 49.7127 55.0725 49.784C55.068 49.8552 55.0495 49.9248 55.0178 49.9888C54.9861 50.0527 54.9417 50.1102 54.887 50.1576L55.2279 50.5504L54.887 50.1576C54.8323 50.2051 54.7682 50.2417 54.6982 50.2651C54.6281 50.2885 54.5536 50.2981 54.4789 50.2931C54.4042 50.288 54.3311 50.2685 54.2638 50.2356C54.1965 50.2027 54.1367 50.1572 54.0876 50.102L54.0875 50.1019L51.5004 47.1936C51.4513 47.1385 51.414 47.0747 51.3903 47.0063C51.3665 46.9379 51.3567 46.866 51.3612 46.7947C51.3656 46.7235 51.3842 46.6539 51.4159 46.59C51.4476 46.526 51.4919 46.4685 51.5466 46.4211ZM52.4861 42.5558C52.5233 42.4171 52.6151 42.2977 52.7433 42.2248L52.4862 41.7727L52.7433 42.2248C52.8718 42.1517 53.0265 42.1315 53.1731 42.1707L57.361 43.2929C57.5076 43.3322 57.6314 43.427 57.7062 43.5546C57.7808 43.6819 57.8006 43.8312 57.7634 43.9699C57.7263 44.1086 57.6345 44.228 57.5062 44.3009C57.3777 44.374 57.223 44.3942 57.0765 44.3549L52.8885 43.2328C52.7419 43.1935 52.6181 43.0987 52.5433 42.9711C52.4687 42.8438 52.449 42.6945 52.4861 42.5558Z" fill="url(#paint4_linear_1531_2508)" stroke="url(#paint5_linear_1531_2508)" stroke-width="1.04009"/>
</g>
<defs>
<filter id="filter0_f_1531_2508" x="6.20014" y="6.19819" width="66.5821" height="66.5821" filterUnits="userSpaceOnUse" color-interpolation-filters="sRGB">
<feFlood flood-opacity="0" result="BackgroundImageFix"/>
<feBlend mode="normal" in="SourceGraphic" in2="BackgroundImageFix" result="shape"/>
<feGaussianBlur stdDeviation="0.520046" result="effect1_foregroundBlur_1531_2508"/>
</filter>
<linearGradient id="paint0_linear_1531_2508" x1="39.4905" y1="7.24641" x2="39.4905" y2="71.7321" gradientUnits="userSpaceOnUse">
<stop stop-color="white"/>
<stop offset="1" stop-color="#040810"/>
</linearGradient>
<linearGradient id="paint1_linear_1531_2508" x1="39.4905" y1="7.24641" x2="39.4905" y2="71.7321" gradientUnits="userSpaceOnUse">
<stop stop-color="#E3EFFF"/>
<stop offset="1" stop-color="#040810"/>
</linearGradient>
<linearGradient id="paint2_linear_1531_2508" x1="39.9586" y1="22.3849" x2="31.3257" y2="54.6033" gradientUnits="userSpaceOnUse">
<stop stop-color="#E3EFFF"/>
<stop offset="1" stop-color="#040810"/>
</linearGradient>
<linearGradient id="paint3_linear_1531_2508" x1="39.9586" y1="22.3849" x2="31.3257" y2="54.6033" gradientUnits="userSpaceOnUse">
<stop stop-color="#E3EFFF"/>
<stop offset="1" stop-color="#040810"/>
</linearGradient>
<linearGradient id="paint4_linear_1531_2508" x1="57.0629" y1="36.0291" x2="53.1864" y2="50.4964" gradientUnits="userSpaceOnUse">
<stop stop-color="#E3EFFF"/>
<stop offset="1" stop-color="#040810"/>
</linearGradient>
<linearGradient id="paint5_linear_1531_2508" x1="57.0629" y1="36.0291" x2="53.1864" y2="50.4964" gradientUnits="userSpaceOnUse">
<stop stop-color="#E3EFFF"/>
<stop offset="1" stop-color="#040810"/>
</linearGradient>
</defs>
</svg>
