<svg width="89" height="89" viewBox="0 0 89 89" fill="none" xmlns="http://www.w3.org/2000/svg">
<g opacity="0.52" filter="url(#filter0_f_1531_2499)">
<circle cx="44.0445" cy="44.0439" r="31.7228" transform="rotate(-30 44.0445 44.0439)" fill="url(#paint0_linear_1531_2499)" fill-opacity="0.15" stroke="url(#paint1_linear_1531_2499)" stroke-width="1.04009"/>
<path fill-rule="evenodd" clip-rule="evenodd" d="M24.4443 33.5296C23.6696 31.0719 26.8067 29.2406 28.5667 31.1261L28.6559 31.2218L28.8314 31.4083C29.8825 32.5217 31.2437 33.2995 32.7454 33.6447C34.2471 33.99 35.8229 33.8874 37.2764 33.3497C39.8054 32.415 41.6893 35.678 39.6153 37.4008C38.4162 38.3964 37.5364 39.7188 37.0868 41.2017C36.6371 42.6845 36.6377 44.2614 37.0886 45.7337L37.1862 46.0555C37.9391 48.5224 34.7871 50.3221 33.0435 48.4239L32.8521 48.2098C31.8094 47.0747 30.4471 46.2771 28.9382 45.9183C27.4293 45.5595 25.842 45.6557 24.3781 46.1947C21.8501 47.1255 19.972 43.8725 22.0421 42.1486C23.2361 41.1538 24.1108 39.8332 24.5558 38.3535C25.0007 36.8738 24.996 35.3013 24.5423 33.8344L24.4801 33.6327L24.4443 33.5296ZM48.522 29.5411C49.058 28.8423 49.791 28.3171 50.6261 28.0337C51.4612 27.7502 52.36 27.7215 53.2058 27.9513L53.2124 27.9509L58.2825 29.2973C58.8405 29.4416 59.363 29.6943 59.8201 30.0409C60.2773 30.3875 60.6599 30.8211 60.9462 31.3169C61.2325 31.8128 61.4167 32.361 61.4883 32.9301C61.5599 33.4993 61.5174 34.0782 61.3634 34.6336L61.3612 34.6415L54.6399 59.3952C54.5495 59.7287 54.3433 60.021 54.058 60.2198L46.8054 65.2772C46.6298 65.3995 46.4298 65.4824 46.2195 65.5203C46.0091 65.5581 45.7935 65.5499 45.5878 65.4962C45.382 65.4425 45.1911 65.3446 45.0283 65.2095C44.8656 65.0743 44.735 64.905 44.6456 64.7136L40.9594 56.8018C40.8142 56.4907 40.7856 56.1372 40.8785 55.8044L47.7596 31.0924C47.9076 30.532 48.1685 30.0037 48.522 29.5411Z" fill="url(#paint2_linear_1531_2499)"/>
</g>
<defs>
<filter id="filter0_f_1531_2499" x="10.7568" y="10.7548" width="66.5763" height="66.5782" filterUnits="userSpaceOnUse" color-interpolation-filters="sRGB">
<feFlood flood-opacity="0" result="BackgroundImageFix"/>
<feBlend mode="normal" in="SourceGraphic" in2="BackgroundImageFix" result="shape"/>
<feGaussianBlur stdDeviation="0.520046" result="effect1_foregroundBlur_1531_2499"/>
</filter>
<linearGradient id="paint0_linear_1531_2499" x1="44.0445" y1="11.801" x2="44.0445" y2="76.2867" gradientUnits="userSpaceOnUse">
<stop stop-color="white"/>
<stop offset="1" stop-color="#040810"/>
</linearGradient>
<linearGradient id="paint1_linear_1531_2499" x1="44.0445" y1="11.801" x2="44.0445" y2="76.2867" gradientUnits="userSpaceOnUse">
<stop stop-color="#E3EFFF"/>
<stop offset="1" stop-color="#040810"/>
</linearGradient>
<linearGradient id="paint2_linear_1531_2499" x1="34.0346" y1="25.8034" x2="54.3226" y2="60.9433" gradientUnits="userSpaceOnUse">
<stop stop-color="#E3EFFF"/>
<stop offset="1" stop-color="#040810"/>
</linearGradient>
</defs>
</svg>
