<svg width="79" height="79" viewBox="0 0 79 79" fill="none" xmlns="http://www.w3.org/2000/svg">
<g opacity="0.52" filter="url(#filter0_f_1531_2491)">
<circle cx="39.4893" cy="39.4905" r="31.7228" transform="rotate(-15 39.4893 39.4905)" fill="url(#paint0_linear_1531_2491)" fill-opacity="0.15" stroke="url(#paint1_linear_1531_2491)" stroke-width="1.04009"/>
<path fill-rule="evenodd" clip-rule="evenodd" d="M21.8192 29.1486C21.2973 29.2884 20.8517 29.6271 20.5803 30.0902C20.3089 30.5532 20.2339 31.1027 20.3719 31.6178L25.3153 50.0668C25.4533 50.5818 25.793 51.0202 26.2596 51.2855C26.7261 51.5509 27.2814 51.6214 27.8033 51.4815L57.3176 43.5732C57.8395 43.4334 58.2851 43.0947 58.5565 42.6316C58.828 42.1685 58.9029 41.619 58.7649 41.104L53.8215 22.655C53.6835 22.1399 53.3438 21.7015 52.8773 21.4362C52.4107 21.1709 51.8554 21.1004 51.3335 21.2402L21.8192 29.1486ZM36.9219 32.3868L37.8325 35.7853L34.3892 36.7079L34.9095 38.6499L38.3529 37.7273L39.2635 41.1258L41.2311 40.5986L40.3205 37.2001L43.7638 36.2774L43.2435 34.3354L39.8001 35.2581L38.8895 31.8596L36.9219 32.3868ZM28.7302 47.0703L24.8275 32.5053L50.4066 25.6514L54.3093 40.2164L28.7302 47.0703ZM22.5997 32.0616C22.5307 31.804 22.5682 31.5293 22.7039 31.2977C22.8396 31.0662 23.0624 30.8969 23.3234 30.8269L50.8701 23.4458C51.131 23.3759 51.4086 23.4112 51.6419 23.5438C51.8752 23.6765 52.0451 23.8957 52.1141 24.1532L56.5371 40.6602C56.6061 40.9177 56.5686 41.1925 56.4329 41.424C56.2972 41.6555 56.0744 41.8249 55.8135 41.8948L28.2667 49.2759C28.0058 49.3458 27.7282 49.3106 27.4949 49.1779C27.2616 49.0453 27.0918 48.8261 27.0228 48.5685L22.5997 32.0616Z" fill="url(#paint2_linear_1531_2491)"/>
<path d="M26.0023 50.6591L26.0023 50.6591L24.2446 56.3337C24.2446 56.3337 24.2446 56.3337 24.2446 56.3337C24.219 56.4164 24.2163 56.5035 24.2363 56.5863C24.2563 56.669 24.2984 56.7453 24.3588 56.807C24.4192 56.8687 24.496 56.914 24.5818 56.9372C24.6676 56.9604 24.7589 56.9607 24.846 56.9374C24.846 56.9374 24.8461 56.9374 24.8461 56.9373L62.5752 46.8279L62.5761 46.8276C62.6643 46.8042 62.7442 46.7577 62.8074 46.6936C62.8705 46.6296 62.9144 46.5508 62.9352 46.4659C62.956 46.3812 62.9532 46.2931 62.9274 46.2109C62.9017 46.1287 62.8539 46.0546 62.7883 45.9966L26.0023 50.6591ZM26.0023 50.6591C26.0268 50.5802 26.0715 50.5077 26.1328 50.449C26.1942 50.3902 26.2701 50.3475 26.3532 50.3253L26.3536 50.3252L57.808 41.897C57.808 41.897 57.808 41.897 57.808 41.897C57.8892 41.8753 57.9741 41.874 58.055 41.8928C58.1358 41.9116 58.2096 41.9499 58.2702 42.0034L58.2703 42.0036L62.7881 45.9964L26.0023 50.6591Z" fill="url(#paint3_linear_1531_2491)" stroke="url(#paint4_linear_1531_2491)" stroke-width="1.04009"/>
</g>
<defs>
<filter id="filter0_f_1531_2491" x="6.19819" y="6.20014" width="66.5821" height="66.5821" filterUnits="userSpaceOnUse" color-interpolation-filters="sRGB">
<feFlood flood-opacity="0" result="BackgroundImageFix"/>
<feBlend mode="normal" in="SourceGraphic" in2="BackgroundImageFix" result="shape"/>
<feGaussianBlur stdDeviation="0.520046" result="effect1_foregroundBlur_1531_2491"/>
</filter>
<linearGradient id="paint0_linear_1531_2491" x1="39.4893" y1="7.2477" x2="39.4893" y2="71.7334" gradientUnits="userSpaceOnUse">
<stop stop-color="white"/>
<stop offset="1" stop-color="#040810"/>
</linearGradient>
<linearGradient id="paint1_linear_1531_2491" x1="39.4893" y1="7.2477" x2="39.4893" y2="71.7334" gradientUnits="userSpaceOnUse">
<stop stop-color="#E3EFFF"/>
<stop offset="1" stop-color="#040810"/>
</linearGradient>
<linearGradient id="paint2_linear_1531_2491" x1="36.5764" y1="25.1944" x2="42.5605" y2="47.5274" gradientUnits="userSpaceOnUse">
<stop stop-color="#E3EFFF"/>
<stop offset="1" stop-color="#040810"/>
</linearGradient>
<linearGradient id="paint3_linear_1531_2491" x1="42.025" y1="45.5877" x2="43.8462" y2="52.3847" gradientUnits="userSpaceOnUse">
<stop stop-color="#E3EFFF"/>
<stop offset="1" stop-color="#040810"/>
</linearGradient>
<linearGradient id="paint4_linear_1531_2491" x1="42.025" y1="45.5877" x2="43.8462" y2="52.3847" gradientUnits="userSpaceOnUse">
<stop stop-color="#E3EFFF"/>
<stop offset="1" stop-color="#040810"/>
</linearGradient>
</defs>
</svg>
