<svg width="25" height="27" viewBox="0 0 25 27" fill="none" xmlns="http://www.w3.org/2000/svg">
<path d="M13.8357 6.77885C14.161 7.29343 14.6059 7.67383 15.1704 7.92003L15.8413 8.21335C16.2926 8.40968 16.6583 8.68597 16.9386 9.04222V11.1263C16.9386 12.701 16.313 14.2112 15.1995 15.3247C14.086 16.4382 12.5758 17.0638 11.0011 17.0638C9.42637 17.0638 7.91614 16.4382 6.80265 15.3247C5.68915 14.2112 5.06359 12.701 5.06359 11.1263V6.37628C5.06366 5.17982 5.4252 4.01129 6.10081 3.02384C6.77643 2.03638 7.73461 1.27608 8.84978 0.842566C9.96494 0.409054 11.1851 0.322563 12.3502 0.594426C13.5154 0.86629 14.5712 1.48382 15.3794 2.3661L15.1704 2.45753C14.6059 2.70295 14.161 3.08335 13.8357 3.59872C13.5324 4.07335 13.3728 4.62554 13.3761 5.18878C13.3761 5.76353 13.5293 6.29355 13.8357 6.77885ZM0.378906 12.3138H2.77172C3.05944 14.2907 4.04931 16.098 5.56025 17.4049C7.07118 18.7119 9.00215 19.4311 10.9999 19.4311C12.9977 19.4311 14.9286 18.7119 16.4396 17.4049C17.9505 16.098 18.9404 14.2907 19.2281 12.3138H21.6221C21.3521 14.7229 20.2715 16.9687 18.5574 18.683C16.8434 20.3972 14.5977 21.4782 12.1886 21.7485V26.5638H9.81359V21.7485C7.40432 21.4784 5.15834 20.3976 3.44405 18.6833C1.72977 16.969 0.648959 14.7231 0.378906 12.3138ZM19.8682 9.57541L20.1603 8.90328C20.6739 7.71427 21.6145 6.76094 22.7965 6.23141L23.6978 5.82885C23.8072 5.77855 23.8998 5.69795 23.9648 5.59661C24.0297 5.49526 24.0642 5.37743 24.0642 5.25706C24.0642 5.1367 24.0297 5.01887 23.9648 4.91752C23.8998 4.81618 23.8072 4.73558 23.6978 4.68528L22.8464 4.30647C21.6347 3.76186 20.678 2.77327 20.1733 1.54435L19.8729 0.818784C19.8288 0.706392 19.7518 0.6099 19.6521 0.541889C19.5523 0.473877 19.4343 0.4375 19.3136 0.4375C19.1929 0.4375 19.0749 0.473877 18.9751 0.541889C18.8754 0.6099 18.7984 0.706392 18.7543 0.818784L18.4538 1.54316C17.9498 2.77231 16.9935 3.76133 15.782 4.30647L14.9293 4.68647C14.8203 4.73692 14.728 4.8175 14.6633 4.91872C14.5987 5.01993 14.5643 5.13754 14.5643 5.25766C14.5643 5.37778 14.5987 5.49539 14.6633 5.5966C14.728 5.69781 14.8203 5.7784 14.9293 5.82885L15.8318 6.23022C17.0136 6.76028 17.9538 7.71403 18.4669 8.90328L18.759 9.57541C18.9728 10.067 19.6532 10.067 19.8682 9.57541Z" fill="url(#paint0_linear_1531_2515)"/>
<defs>
<linearGradient id="paint0_linear_1531_2515" x1="12.2216" y1="0.4375" x2="12.2216" y2="26.5638" gradientUnits="userSpaceOnUse">
<stop stop-color="white"/>
<stop offset="1" stop-color="#047CFC"/>
</linearGradient>
</defs>
</svg>
