<svg width="76" height="41" viewBox="0 0 76 41" fill="none" xmlns="http://www.w3.org/2000/svg">
<path fill-rule="evenodd" clip-rule="evenodd" d="M20.185 25.3458L13.6195 36.7127C12.92 37.9055 13.3352 39.4481 14.5255 40.1301C15.7183 40.8296 17.2609 40.4169 17.9453 39.2241L24.5108 27.8572C25.2104 26.6669 24.7952 25.1243 23.6049 24.4399C22.4121 23.7403 20.8846 24.1379 20.185 25.3458ZM49.2452 23.471C49.9297 24.6638 49.517 26.1888 48.3242 26.8884C47.1314 27.5729 45.6064 27.1576 44.9068 25.9674L34.9215 8.67166C34.2546 7.49395 33.3336 6.58802 32.2666 5.96897C32.2364 5.95135 32.1886 5.92116 32.1559 5.90354C31.1241 5.3323 29.9137 5.03032 28.6102 5.03032C27.2437 5.03032 26.0031 5.3474 24.9386 5.96897C23.8742 6.58802 22.9682 7.49395 22.3014 8.65404L4.67097 39.1939C3.98649 40.3842 2.46151 40.7994 1.25108 40.1149C0.0607945 39.4305 -0.354423 37.9055 0.330057 36.6976L17.9755 6.1577C19.1054 4.22002 20.6304 2.67742 22.4599 1.62806C24.2869 0.563589 26.3856 0.00744993 28.6102 0.00745012C30.7894 0.00745031 32.8252 0.545975 34.6195 1.54753C34.6673 1.58024 34.7327 1.59534 34.7805 1.62806C36.6075 2.67743 38.135 4.22002 39.2473 6.1577L49.2452 23.471Z" fill="white"/>
<path fill-rule="evenodd" clip-rule="evenodd" d="M20.185 25.3458L13.6195 36.7127C12.92 37.9055 13.3352 39.4481 14.5255 40.1301C15.7183 40.8296 17.2609 40.4169 17.9453 39.2241L24.5108 27.8572C25.2104 26.6669 24.7952 25.1243 23.6049 24.4399C22.4121 23.7403 20.8846 24.1379 20.185 25.3458ZM49.2452 23.471C49.9297 24.6638 49.517 26.1888 48.3242 26.8884C47.1314 27.5729 45.6064 27.1576 44.9068 25.9674L34.9215 8.67166C34.2546 7.49395 33.3336 6.58802 32.2666 5.96897C32.2364 5.95135 32.1886 5.92116 32.1559 5.90354C31.1241 5.3323 29.9137 5.03032 28.6102 5.03032C27.2437 5.03032 26.0031 5.3474 24.9386 5.96897C23.8742 6.58802 22.9682 7.49395 22.3014 8.65404L4.67097 39.1939C3.98649 40.3842 2.46151 40.7994 1.25108 40.1149C0.0607945 39.4305 -0.354423 37.9055 0.330057 36.6976L17.9755 6.1577C19.1054 4.22002 20.6304 2.67742 22.4599 1.62806C24.2869 0.563589 26.3856 0.00744993 28.6102 0.00745012C30.7894 0.00745031 32.8252 0.545975 34.6195 1.54753C34.6673 1.58024 34.7327 1.59534 34.7805 1.62806C36.6075 2.67743 38.135 4.22002 39.2473 6.1577L49.2452 23.471Z" fill="url(#paint0_linear_1531_2419)"/>
<path fill-rule="evenodd" clip-rule="evenodd" d="M55.4946 15.1248L62.0601 3.76047C62.7597 2.56766 62.347 1.02507 61.1542 0.340588C59.9614 -0.358991 58.4188 0.0562267 57.7368 1.24652L51.1713 12.6134C50.4718 13.8062 50.8845 15.3488 52.0773 16.0308C53.2701 16.7304 54.7951 16.3328 55.4946 15.1248ZM26.4495 17.0021C25.7676 15.8093 26.1803 14.2843 27.3731 13.5848C28.5659 12.9003 30.0909 13.313 30.7904 14.5058L40.7733 31.8015C41.4401 32.9792 42.3637 33.8851 43.4282 34.5042C43.4609 34.5193 43.5087 34.552 43.5389 34.5671C44.5732 35.1408 45.7811 35.4428 47.0846 35.4428C48.451 35.4428 49.6917 35.1081 50.7561 34.5042C51.8231 33.8851 52.729 32.9792 53.3959 31.8166L62.0123 16.8587L71.0112 1.27923C71.6932 0.0864255 73.2206 -0.326275 74.4286 0.358205C75.6214 1.04017 76.0341 2.56767 75.3496 3.77557L57.7192 34.3129C56.5918 36.2531 55.0643 37.7957 53.2374 38.8451C51.3928 39.8945 49.3117 40.4657 47.0695 40.4657C44.8902 40.4657 42.8569 39.9247 41.0602 38.9231C41.0123 38.8929 40.9494 38.8753 40.9016 38.8451C39.0721 37.7957 37.5472 36.2531 36.4349 34.3129L26.4495 17.0021Z" fill="white"/>
<path fill-rule="evenodd" clip-rule="evenodd" d="M55.4946 15.1248L62.0601 3.76047C62.7597 2.56766 62.347 1.02507 61.1542 0.340588C59.9614 -0.358991 58.4188 0.0562267 57.7368 1.24652L51.1713 12.6134C50.4718 13.8062 50.8845 15.3488 52.0773 16.0308C53.2701 16.7304 54.7951 16.3328 55.4946 15.1248ZM26.4495 17.0021C25.7676 15.8093 26.1803 14.2843 27.3731 13.5848C28.5659 12.9003 30.0909 13.313 30.7904 14.5058L40.7733 31.8015C41.4401 32.9792 42.3637 33.8851 43.4282 34.5042C43.4609 34.5193 43.5087 34.552 43.5389 34.5671C44.5732 35.1408 45.7811 35.4428 47.0846 35.4428C48.451 35.4428 49.6917 35.1081 50.7561 34.5042C51.8231 33.8851 52.729 32.9792 53.3959 31.8166L62.0123 16.8587L71.0112 1.27923C71.6932 0.0864255 73.2206 -0.326275 74.4286 0.358205C75.6214 1.04017 76.0341 2.56767 75.3496 3.77557L57.7192 34.3129C56.5918 36.2531 55.0643 37.7957 53.2374 38.8451C51.3928 39.8945 49.3117 40.4657 47.0695 40.4657C44.8902 40.4657 42.8569 39.9247 41.0602 38.9231C41.0123 38.8929 40.9494 38.8753 40.9016 38.8451C39.0721 37.7957 37.5472 36.2531 36.4349 34.3129L26.4495 17.0021Z" fill="url(#paint1_linear_1531_2419)"/>
<defs>
<linearGradient id="paint0_linear_1531_2419" x1="37.8401" y1="0" x2="37.8401" y2="40.4712" gradientUnits="userSpaceOnUse">
<stop stop-color="#027FFF"/>
<stop offset="1" stop-color="#FF2D46"/>
</linearGradient>
<linearGradient id="paint1_linear_1531_2419" x1="37.8401" y1="0" x2="37.8401" y2="40.4712" gradientUnits="userSpaceOnUse">
<stop stop-color="#027FFF"/>
<stop offset="1" stop-color="#FF2D46"/>
</linearGradient>
</defs>
</svg>
