<svg width="250" height="250" viewBox="0 0 250 250" fill="none" xmlns="http://www.w3.org/2000/svg">
<g opacity="0.4" filter="url(#filter0_f_1531_3024)">
<rect x="49" y="49" width="151.594" height="151.594" rx="15.4984" fill="#047CFC"/>
</g>
<g opacity="0.4" filter="url(#filter1_f_1531_3024)">
<rect x="49" y="49" width="151.594" height="151.594" rx="15.4984" fill="#047CFC"/>
</g>
<g filter="url(#filter2_d_1531_3024)">
<rect x="49" y="49" width="151.594" height="151.594" rx="15.4984" fill="white"/>
<rect x="49.4843" y="49.4843" width="150.625" height="150.625" rx="15.0141" stroke="#047CFC" stroke-width="0.96865"/>
</g>
<path fill-rule="evenodd" clip-rule="evenodd" d="M100.277 131.659L91.1598 147.445C90.1883 149.101 90.7649 151.243 92.4179 152.19C94.0744 153.162 96.2166 152.589 97.1671 150.932L106.285 135.147C107.256 133.494 106.68 131.352 105.027 130.401C103.37 129.43 101.249 129.982 100.277 131.659ZM140.634 129.056C141.584 130.712 141.011 132.83 139.355 133.801C137.698 134.752 135.581 134.175 134.609 132.522L120.742 108.503C119.816 106.868 118.537 105.61 117.055 104.75C117.013 104.726 116.947 104.684 116.902 104.659C115.469 103.866 113.788 103.447 111.978 103.447C110.08 103.447 108.357 103.887 106.879 104.75C105.401 105.61 104.143 106.868 103.216 108.479L78.7328 150.89C77.7822 152.543 75.6644 153.12 73.9835 152.169C72.3305 151.219 71.7539 149.101 72.7045 147.424L97.2091 105.012C98.7782 102.321 100.896 100.179 103.437 98.7219C105.974 97.2436 108.888 96.4713 111.978 96.4713C115.004 96.4713 117.831 97.2191 120.323 98.61C120.389 98.6555 120.48 98.6764 120.547 98.7219C123.084 100.179 125.205 102.321 126.75 105.012L140.634 129.056Z" fill="#047CFC"/>
<path fill-rule="evenodd" clip-rule="evenodd" d="M100.277 131.659L91.1598 147.445C90.1883 149.101 90.7649 151.243 92.4179 152.19C94.0744 153.162 96.2166 152.589 97.1671 150.932L106.285 135.147C107.256 133.494 106.68 131.352 105.027 130.401C103.37 129.43 101.249 129.982 100.277 131.659ZM140.634 129.056C141.584 130.712 141.011 132.83 139.355 133.801C137.698 134.752 135.581 134.175 134.609 132.522L120.742 108.503C119.816 106.868 118.537 105.61 117.055 104.75C117.013 104.726 116.947 104.684 116.902 104.659C115.469 103.866 113.788 103.447 111.978 103.447C110.08 103.447 108.357 103.887 106.879 104.75C105.401 105.61 104.143 106.868 103.216 108.479L78.7328 150.89C77.7822 152.543 75.6644 153.12 73.9835 152.169C72.3305 151.219 71.7539 149.101 72.7045 147.424L97.2091 105.012C98.7782 102.321 100.896 100.179 103.437 98.7219C105.974 97.2436 108.888 96.4713 111.978 96.4713C115.004 96.4713 117.831 97.2191 120.323 98.61C120.389 98.6555 120.48 98.6764 120.547 98.7219C123.084 100.179 125.205 102.321 126.75 105.012L140.634 129.056Z" fill="url(#paint0_linear_1531_3024)"/>
<path fill-rule="evenodd" clip-rule="evenodd" d="M149.313 117.465L158.43 101.683C159.402 100.027 158.829 97.8845 157.172 96.9339C155.516 95.9624 153.373 96.539 152.426 98.192L143.309 113.977C142.337 115.634 142.91 117.776 144.567 118.723C146.223 119.695 148.341 119.143 149.313 117.465ZM108.977 120.072C108.03 118.416 108.603 116.298 110.26 115.326C111.916 114.376 114.034 114.949 115.005 116.605L128.869 140.624C129.795 142.26 131.077 143.518 132.556 144.378C132.601 144.399 132.667 144.444 132.709 144.465C134.146 145.262 135.823 145.681 137.633 145.681C139.531 145.681 141.254 145.216 142.732 144.378C144.214 143.518 145.472 142.26 146.398 140.645L158.364 119.873L170.861 98.2374C171.808 96.581 173.929 96.0078 175.606 96.9584C177.263 97.9054 177.836 100.027 176.886 101.704L152.402 144.112C150.836 146.806 148.715 148.949 146.178 150.406C143.616 151.863 140.726 152.656 137.612 152.656C134.586 152.656 131.762 151.905 129.267 150.514C129.201 150.472 129.113 150.448 129.047 150.406C126.506 148.949 124.389 146.806 122.844 144.112L108.977 120.072Z" fill="#047CFC"/>
<path fill-rule="evenodd" clip-rule="evenodd" d="M149.313 117.465L158.43 101.683C159.402 100.027 158.829 97.8845 157.172 96.9339C155.516 95.9624 153.373 96.539 152.426 98.192L143.309 113.977C142.337 115.634 142.91 117.776 144.567 118.723C146.223 119.695 148.341 119.143 149.313 117.465ZM108.977 120.072C108.03 118.416 108.603 116.298 110.26 115.326C111.916 114.376 114.034 114.949 115.005 116.605L128.869 140.624C129.795 142.26 131.077 143.518 132.556 144.378C132.601 144.399 132.667 144.444 132.709 144.465C134.146 145.262 135.823 145.681 137.633 145.681C139.531 145.681 141.254 145.216 142.732 144.378C144.214 143.518 145.472 142.26 146.398 140.645L158.364 119.873L170.861 98.2374C171.808 96.581 173.929 96.0078 175.606 96.9584C177.263 97.9054 177.836 100.027 176.886 101.704L152.402 144.112C150.836 146.806 148.715 148.949 146.178 150.406C143.616 151.863 140.726 152.656 137.612 152.656C134.586 152.656 131.762 151.905 129.267 150.514C129.201 150.472 129.113 150.448 129.047 150.406C126.506 148.949 124.389 146.806 122.844 144.112L108.977 120.072Z" fill="url(#paint1_linear_1531_3024)"/>
<defs>
<filter id="filter0_f_1531_3024" x="43.1881" y="43.1881" width="163.218" height="163.218" filterUnits="userSpaceOnUse" color-interpolation-filters="sRGB">
<feFlood flood-opacity="0" result="BackgroundImageFix"/>
<feBlend mode="normal" in="SourceGraphic" in2="BackgroundImageFix" result="shape"/>
<feGaussianBlur stdDeviation="2.90595" result="effect1_foregroundBlur_1531_3024"/>
</filter>
<filter id="filter1_f_1531_3024" x="0.56749" y="0.56749" width="248.459" height="248.459" filterUnits="userSpaceOnUse" color-interpolation-filters="sRGB">
<feFlood flood-opacity="0" result="BackgroundImageFix"/>
<feBlend mode="normal" in="SourceGraphic" in2="BackgroundImageFix" result="shape"/>
<feGaussianBlur stdDeviation="24.2163" result="effect1_foregroundBlur_1531_3024"/>
</filter>
<filter id="filter2_d_1531_3024" x="31.5643" y="42.2195" width="186.465" height="186.465" filterUnits="userSpaceOnUse" color-interpolation-filters="sRGB">
<feFlood flood-opacity="0" result="BackgroundImageFix"/>
<feColorMatrix in="SourceAlpha" type="matrix" values="0 0 0 0 0 0 0 0 0 0 0 0 0 0 0 0 0 0 127 0" result="hardAlpha"/>
<feOffset dy="10.6552"/>
<feGaussianBlur stdDeviation="8.71785"/>
<feComposite in2="hardAlpha" operator="out"/>
<feColorMatrix type="matrix" values="0 0 0 0 0.0969792 0 0 0 0 0.127894 0 0 0 0 0.2375 0 0 0 0.12 0"/>
<feBlend mode="normal" in2="BackgroundImageFix" result="effect1_dropShadow_1531_3024"/>
<feBlend mode="normal" in="SourceGraphic" in2="effect1_dropShadow_1531_3024" result="shape"/>
</filter>
<linearGradient id="paint0_linear_1531_3024" x1="124.795" y1="96.4609" x2="124.795" y2="152.664" gradientUnits="userSpaceOnUse">
<stop stop-color="#027FFF"/>
<stop offset="1" stop-color="#FF2D46"/>
</linearGradient>
<linearGradient id="paint1_linear_1531_3024" x1="124.795" y1="96.4609" x2="124.795" y2="152.664" gradientUnits="userSpaceOnUse">
<stop stop-color="#027FFF"/>
<stop offset="1" stop-color="#FF2D46"/>
</linearGradient>
</defs>
</svg>
