<svg width="411" height="400" viewBox="0 0 411 400" fill="none" xmlns="http://www.w3.org/2000/svg">
<g opacity="0.25" clip-path="url(#clip0_1531_2950)">
<path fill-rule="evenodd" clip-rule="evenodd" d="M369.27 95.4303L351.95 85.4261C350.132 84.3601 347.782 84.9928 346.742 86.8065C345.676 88.6241 346.305 90.9746 348.123 92.0176L365.443 102.022C367.257 103.088 369.608 102.455 370.651 100.641C371.717 98.8238 371.111 96.4963 369.27 95.4303ZM372.127 139.711C370.309 140.754 367.986 140.125 366.92 138.308C365.877 136.49 366.509 134.166 368.323 133.1L381.502 125.493L394.678 117.885C396.472 116.869 397.852 115.466 398.796 113.84C398.823 113.794 398.869 113.721 398.895 113.671C399.766 112.099 400.226 110.254 400.226 108.268C400.226 106.186 399.743 104.296 398.796 102.674C397.852 101.052 396.472 99.6713 394.704 98.6551L371.908 85.499L348.169 71.7906C346.355 70.7477 345.723 68.424 346.765 66.5796C347.808 64.7658 350.132 64.1332 351.973 65.1761L375.712 78.8883L398.508 92.0636C401.461 93.7853 403.811 96.109 405.41 98.8967C407.032 101.681 407.88 104.879 407.88 108.268C407.88 111.589 407.059 114.691 405.533 117.425C405.483 117.498 405.46 117.598 405.41 117.67C403.811 120.454 401.461 122.782 398.508 124.477L385.329 132.08L372.127 139.711Z" fill="white"/>
<path fill-rule="evenodd" clip-rule="evenodd" d="M316.667 402.32L333.988 412.324C335.805 413.39 338.156 412.757 339.195 410.943C340.261 409.126 339.632 406.775 337.815 405.732L320.494 395.728C318.68 394.662 316.33 395.295 315.287 397.109C314.221 398.926 314.827 401.254 316.667 402.32ZM313.811 358.039C315.628 356.996 317.952 357.625 319.018 359.442C320.061 361.26 319.428 363.584 317.614 364.65L304.435 372.257L291.26 379.865C289.465 380.881 288.085 382.284 287.142 383.91C287.115 383.956 287.069 384.029 287.042 384.079C286.172 385.651 285.711 387.496 285.711 389.482C285.711 391.564 286.195 393.454 287.142 395.076C288.085 396.698 289.465 398.079 291.233 399.095L314.029 412.251L337.769 425.959C339.582 427.002 340.215 429.326 339.172 431.17C338.129 432.984 335.805 433.617 333.965 432.574L310.225 418.862L287.429 405.686C284.477 403.965 282.126 401.641 280.527 398.853C278.905 396.069 278.058 392.871 278.058 389.482C278.058 386.161 278.878 383.059 280.405 380.325C280.454 380.252 280.477 380.152 280.527 380.08C282.126 377.296 284.477 374.968 287.429 373.273L300.608 365.67L313.811 358.039Z" fill="white"/>
<path fill-rule="evenodd" clip-rule="evenodd" d="M370.255 332.012L352.934 322.008C351.117 320.942 348.766 321.575 347.727 323.389C346.661 325.206 347.29 327.557 349.107 328.6L366.428 338.604C368.241 339.67 370.592 339.037 371.635 337.223C372.701 335.406 372.095 333.078 370.255 332.012ZM373.111 376.293C371.294 377.336 368.97 376.707 367.904 374.89C366.861 373.072 367.494 370.748 369.307 369.682L382.487 362.075L395.662 354.467C397.456 353.451 398.837 352.048 399.78 350.422C399.807 350.376 399.853 350.303 399.88 350.253C400.75 348.681 401.21 346.837 401.21 344.85C401.21 342.768 400.727 340.878 399.78 339.256C398.837 337.634 397.456 336.253 395.689 335.237L372.893 322.081L349.153 308.373C347.34 307.33 346.707 305.006 347.75 303.162C348.793 301.348 351.117 300.715 352.957 301.758L376.696 315.47L399.493 328.646C402.445 330.367 404.796 332.691 406.395 335.479C408.017 338.263 408.864 341.461 408.864 344.85C408.864 348.171 408.043 351.273 406.517 354.007C406.468 354.08 406.444 354.18 406.395 354.252C404.796 357.036 402.445 359.364 399.493 361.059L386.313 368.662L373.111 376.293Z" fill="white"/>
<path fill-rule="evenodd" clip-rule="evenodd" d="M315.675 165.726L332.996 175.73C334.813 176.796 337.164 176.163 338.203 174.35C339.269 172.532 338.64 170.182 336.822 169.139L319.502 159.134C317.688 158.068 315.338 158.701 314.295 160.515C313.229 162.332 313.835 164.66 315.675 165.726ZM312.818 121.445C314.636 120.402 316.96 121.031 318.026 122.849C319.069 124.666 318.436 126.99 316.622 128.056L303.443 135.663L290.268 143.271C288.473 144.287 287.093 145.691 286.15 147.317C286.123 147.363 286.077 147.435 286.05 147.485C285.179 149.057 284.719 150.902 284.719 152.888C284.719 154.97 285.202 156.861 286.15 158.483C287.093 160.105 288.473 161.485 290.241 162.501L313.037 175.657L336.776 189.366C338.59 190.409 339.223 192.732 338.18 194.577C337.137 196.39 334.813 197.023 332.973 195.98L309.233 182.268L286.437 169.093C283.485 167.371 281.134 165.047 279.535 162.26C277.913 159.476 277.066 156.278 277.066 152.888C277.066 149.567 277.886 146.465 279.412 143.731C279.462 143.658 279.485 143.559 279.535 143.486C281.134 140.702 283.485 138.374 286.437 136.68L299.616 129.076L312.818 121.445Z" fill="white"/>
<path fill-rule="evenodd" clip-rule="evenodd" d="M368.943 46.3408L351.454 36.6339C349.605 35.6236 348.939 33.2824 349.959 31.4583C350.97 29.6092 353.309 28.9394 355.138 29.9615L372.627 39.6684C374.474 40.6754 375.141 43.0165 374.122 44.8439C373.112 46.693 370.804 47.3708 368.943 46.3408ZM408.385 26.0122C408.345 23.9171 406.61 22.2479 404.503 22.2687C402.408 22.3093 400.741 24.0472 400.76 26.1509L401.015 41.366L401.269 56.5779C401.321 58.6395 400.827 60.5452 399.918 62.1905C399.893 62.2371 399.854 62.3141 399.825 62.3627C398.924 63.9179 397.579 65.2613 395.876 66.283C394.091 67.3541 392.221 67.9122 390.343 67.9343C388.467 67.9598 386.573 67.4861 384.792 66.4929L361.784 53.7118L337.816 40.4058C335.989 39.387 333.671 40.0398 332.626 41.8829C331.607 43.7103 332.26 46.0285 334.101 47.0703L358.071 60.3743L381.096 73.1456C384.091 74.7919 387.293 75.6123 390.506 75.5495C393.728 75.5084 396.906 74.59 399.813 72.8464C402.661 71.1382 404.899 68.8388 406.458 66.1237C406.495 66.0434 406.569 65.9724 406.606 65.8922C408.17 63.089 408.957 59.876 408.892 56.4722L408.633 41.259L408.385 26.0122Z" fill="white"/>
<path fill-rule="evenodd" clip-rule="evenodd" d="M368.795 -3.61031L351.306 6.09655C349.457 7.10683 348.79 9.448 349.811 11.2721C350.821 13.1212 353.16 13.7911 354.99 12.7689L372.479 3.06208C374.326 2.05508 374.992 -0.286081 373.973 -2.11348C372.963 -3.96257 370.656 -4.64033 368.795 -3.61031ZM408.237 16.7182C408.196 18.8134 406.462 20.4826 404.355 20.4617C402.26 20.4212 400.592 18.6833 400.611 16.5796L400.867 1.36443L401.12 -13.8475C401.172 -15.9091 400.679 -17.8148 399.77 -19.46C399.744 -19.5067 399.705 -19.5836 399.676 -19.6323C398.776 -21.1875 397.431 -22.5308 395.728 -23.5526C393.942 -24.6236 392.072 -25.1817 390.194 -25.2039C388.318 -25.2294 386.424 -24.7557 384.644 -23.7625L361.635 -10.9814L337.668 2.32461C335.841 3.34344 333.522 2.69068 332.477 0.847503C331.458 -0.979888 332.111 -3.29803 333.952 -4.33988L357.923 -17.6439L380.948 -30.4152C383.943 -32.0615 387.145 -32.8818 390.358 -32.8191C393.58 -32.778 396.758 -31.8596 399.665 -30.1159C402.512 -28.4078 404.75 -26.1083 406.31 -23.3932C406.347 -23.313 406.42 -23.242 406.457 -23.1618C408.022 -20.3585 408.809 -17.1455 408.743 -13.7417L408.485 1.47148L408.237 16.7182Z" fill="white"/>
<path fill-rule="evenodd" clip-rule="evenodd" d="M368.08 282.935L350.591 273.228C348.742 272.217 348.075 269.876 349.096 268.052C350.106 266.203 352.446 265.533 354.275 266.555L371.764 276.262C373.611 277.269 374.277 279.61 373.259 281.438C372.248 283.287 369.941 283.965 368.08 282.935ZM407.522 262.606C407.482 260.511 405.747 258.842 403.64 258.862C401.545 258.903 399.878 260.641 399.896 262.745L400.152 277.96L400.406 293.172C400.457 295.233 399.964 297.139 399.055 298.784C399.029 298.831 398.99 298.908 398.961 298.956C398.061 300.512 396.716 301.855 395.013 302.877C393.227 303.948 391.358 304.506 389.479 304.528C387.603 304.554 385.709 304.08 383.929 303.087L360.92 290.306L336.953 277C335.126 275.981 332.808 276.634 331.762 278.477C330.744 280.304 331.396 282.622 333.238 283.664L357.208 296.968L380.233 309.739C383.228 311.386 386.43 312.206 389.643 312.143C392.865 312.102 396.043 311.184 398.95 309.44C401.798 307.732 404.036 305.433 405.595 302.717C405.632 302.637 405.706 302.566 405.742 302.486C407.307 299.683 408.094 296.47 408.029 293.066L407.77 277.853L407.522 262.606Z" fill="white"/>
<path fill-rule="evenodd" clip-rule="evenodd" d="M317.85 214.812L335.339 224.518C337.188 225.529 337.854 227.87 336.834 229.694C335.823 231.543 333.484 232.213 331.655 231.191L314.166 221.484C312.319 220.477 311.652 218.136 312.671 216.308C313.681 214.459 315.989 213.782 317.85 214.812ZM278.408 235.14C278.448 237.235 280.183 238.904 282.29 238.884C284.385 238.843 286.052 237.105 286.033 235.001L285.778 219.786L285.524 204.574C285.472 202.513 285.966 200.607 286.875 198.962C286.9 198.915 286.939 198.838 286.968 198.79C287.869 197.234 289.214 195.891 290.917 194.869C292.702 193.798 294.572 193.24 296.45 193.218C298.326 193.193 300.22 193.666 302.001 194.659L325.009 207.441L348.977 220.747C350.804 221.765 353.122 221.113 354.167 219.269C355.186 217.442 354.533 215.124 352.692 214.082L328.722 200.778L305.697 188.007C302.702 186.36 299.5 185.54 296.287 185.603C293.065 185.644 289.887 186.562 286.98 188.306C284.132 190.014 281.894 192.314 280.335 195.029C280.298 195.109 280.224 195.18 280.187 195.26C278.623 198.063 277.836 201.276 277.901 204.68L278.16 219.893L278.408 235.14Z" fill="white"/>
<path fill-rule="evenodd" clip-rule="evenodd" d="M366.102 183.559L348.782 173.555C346.964 172.489 344.614 173.122 343.575 174.935C342.509 176.753 343.137 179.104 344.955 180.147L362.275 190.151C364.089 191.217 366.44 190.584 367.483 188.77C368.549 186.953 367.943 184.625 366.102 183.559ZM368.959 227.84C367.141 228.883 364.818 228.254 363.752 226.437C362.709 224.619 363.341 222.295 365.155 221.229L378.334 213.622L391.51 206.014C393.304 204.998 394.685 203.594 395.628 201.969C395.655 201.923 395.701 201.85 395.727 201.8C396.598 200.228 397.058 198.383 397.058 196.397C397.058 194.315 396.575 192.425 395.628 190.803C394.685 189.181 393.304 187.8 391.536 186.784L368.74 173.628L345.001 159.92C343.187 158.877 342.555 156.553 343.598 154.708C344.641 152.895 346.964 152.262 348.805 153.305L372.544 167.017L395.34 180.193C398.293 181.914 400.643 184.238 402.242 187.026C403.864 189.809 404.712 193.007 404.712 196.397C404.712 199.718 403.891 202.82 402.365 205.554C402.315 205.627 402.292 205.726 402.242 205.799C400.643 208.583 398.293 210.911 395.34 212.606L382.161 220.209L368.959 227.84Z" fill="white"/>
<path fill-rule="evenodd" clip-rule="evenodd" d="M319.831 314.183L337.152 324.187C338.969 325.253 341.32 324.62 342.359 322.807C343.425 320.989 342.796 318.639 340.979 317.596L323.658 307.591C321.845 306.525 319.494 307.158 318.451 308.972C317.385 310.789 317.991 313.117 319.831 314.183ZM316.975 269.902C318.792 268.859 321.116 269.488 322.182 271.306C323.225 273.123 322.592 275.447 320.779 276.513L307.599 284.12L294.424 291.728C292.629 292.744 291.249 294.148 290.306 295.774C290.279 295.82 290.233 295.892 290.206 295.942C289.336 297.514 288.876 299.359 288.876 301.345C288.876 303.427 289.359 305.318 290.306 306.94C291.249 308.562 292.629 309.942 294.397 310.958L317.193 324.114L340.933 337.823C342.746 338.866 343.379 341.189 342.336 343.034C341.293 344.847 338.969 345.48 337.129 344.437L313.389 330.725L290.593 317.55C287.641 315.828 285.29 313.504 283.691 310.717C282.069 307.933 281.222 304.735 281.222 301.345C281.222 298.024 282.042 294.922 283.569 292.188C283.618 292.115 283.641 292.016 283.691 291.943C285.29 289.159 287.641 286.831 290.593 285.137L303.773 277.533L316.975 269.902Z" fill="white"/>
<path fill-rule="evenodd" clip-rule="evenodd" d="M367.09 420.145L349.77 410.141C347.952 409.075 345.602 409.708 344.563 411.521C343.497 413.339 344.126 415.689 345.943 416.732L363.264 426.737C365.077 427.803 367.428 427.17 368.471 425.356C369.537 423.539 368.931 421.211 367.09 420.145ZM369.947 464.426C368.13 465.469 365.806 464.84 364.74 463.023C363.697 461.205 364.33 458.881 366.143 457.815L379.323 450.208L392.498 442.6C394.292 441.584 395.673 440.18 396.616 438.555C396.643 438.509 396.689 438.436 396.716 438.386C397.586 436.814 398.046 434.969 398.046 432.983C398.046 430.901 397.563 429.011 396.616 427.389C395.673 425.767 394.292 424.386 392.525 423.37L369.729 410.214L345.989 396.505C344.176 395.463 343.543 393.139 344.586 391.294C345.629 389.481 347.952 388.848 349.793 389.891L373.532 403.603L396.328 416.778C399.281 418.5 401.632 420.824 403.231 423.612C404.853 426.395 405.7 429.593 405.7 432.983C405.7 436.304 404.879 439.406 403.353 442.14C403.303 442.213 403.28 442.312 403.231 442.385C401.632 445.169 399.281 447.497 396.328 449.191L383.149 456.795L369.947 464.426Z" fill="white"/>
<path fill-rule="evenodd" clip-rule="evenodd" d="M318.839 77.6009L336.16 87.6051C337.977 88.6711 340.328 88.0384 341.367 86.2247C342.433 84.4072 341.804 82.0566 339.986 81.0136L322.666 71.0094C320.852 69.9434 318.502 70.5761 317.459 72.3898C316.393 74.2074 316.999 76.5349 318.839 77.6009ZM315.983 33.3202C317.8 32.2772 320.124 32.906 321.19 34.7236C322.233 36.5411 321.6 38.8648 319.786 39.9308L306.607 47.5385L293.432 55.1461C291.637 56.1622 290.257 57.5657 289.314 59.1915C289.287 59.2375 289.241 59.3104 289.214 59.3602C288.343 60.9324 287.883 62.7768 287.883 64.763C287.883 66.8452 288.366 68.7356 289.314 70.3576C290.257 71.9795 291.637 73.36 293.405 74.3761L316.201 87.5323L339.94 101.241C341.754 102.284 342.387 104.607 341.344 106.452C340.301 108.265 337.977 108.898 336.137 107.855L312.397 94.1429L289.601 80.9676C286.649 79.2459 284.298 76.9222 282.699 74.1345C281.077 71.3507 280.23 68.1527 280.23 64.763C280.23 61.4423 281.05 58.3402 282.576 55.6062C282.626 55.5334 282.649 55.4337 282.699 55.3608C284.298 52.577 286.649 50.2495 289.601 48.5546L302.78 40.9508L315.983 33.3202Z" fill="white"/>
<path fill-rule="evenodd" clip-rule="evenodd" d="M389.949 267.769L389.749 287.77C389.742 289.877 388.001 291.579 385.911 291.55C383.804 291.543 382.1 289.806 382.127 287.711L382.327 267.71C382.332 265.606 384.073 263.904 386.165 263.929C388.272 263.936 389.968 265.642 389.949 267.769ZM353.281 242.78C351.459 243.814 350.818 246.134 351.84 247.977C352.874 249.799 355.197 250.437 357.037 249.418L370.292 241.943L383.545 234.471C385.333 233.443 387.243 232.969 389.123 232.984C389.176 232.984 389.262 232.982 389.319 232.984C391.115 233.034 392.937 233.577 394.647 234.587C396.439 235.647 397.821 237.024 398.735 238.665C399.652 240.302 400.138 242.193 400.113 244.232L399.841 270.551L399.564 297.962C399.539 300.054 401.218 301.781 403.336 301.822C405.428 301.847 407.155 300.168 407.194 298.053L407.467 270.639L407.723 244.311C407.743 240.893 406.939 237.687 405.352 234.892C403.781 232.08 401.459 229.723 398.541 227.998C395.682 226.309 392.594 225.437 389.464 225.36C389.376 225.366 389.278 225.335 389.19 225.341C385.98 225.301 382.781 226.14 379.819 227.82L366.568 235.297L353.281 242.78Z" fill="white"/>
<path fill-rule="evenodd" clip-rule="evenodd" d="M295.977 229.969L296.177 209.968C296.184 207.861 297.924 206.16 300.015 206.188C302.122 206.195 303.825 207.932 303.798 210.028L303.599 230.029C303.593 232.132 301.853 233.834 299.761 233.809C297.654 233.802 295.958 232.096 295.977 229.969ZM332.644 254.958C334.467 253.924 335.108 251.604 334.086 249.762C333.051 247.939 330.729 247.301 328.889 248.32L315.634 255.795L302.381 263.267C300.593 264.295 298.683 264.769 296.803 264.754C296.75 264.754 296.664 264.757 296.607 264.754C294.811 264.704 292.989 264.162 291.279 263.151C289.486 262.092 288.105 260.714 287.19 259.073C286.274 257.436 285.788 255.545 285.812 253.506L286.085 227.188L286.362 199.776C286.387 197.684 284.708 195.957 282.59 195.916C280.498 195.892 278.771 197.57 278.732 199.685L278.458 227.099L278.203 253.427C278.182 256.845 278.987 260.051 280.573 262.846C282.145 265.659 284.467 268.015 287.385 269.74C290.243 271.429 293.332 272.301 296.462 272.378C296.55 272.373 296.647 272.404 296.735 272.398C299.946 272.438 303.145 271.598 306.107 269.919L319.358 262.442L332.644 254.958Z" fill="white"/>
<path fill-rule="evenodd" clip-rule="evenodd" d="M294.993 -6.61255L295.192 -26.6136C295.2 -28.7207 296.94 -30.4223 299.03 -30.3941C301.137 -30.3871 302.841 -28.6497 302.814 -26.5544L302.614 -6.55334C302.609 -4.44956 300.868 -2.74791 298.776 -2.77281C296.669 -2.77987 294.974 -4.48567 294.993 -6.61255ZM331.66 18.3764C333.483 17.3423 334.124 15.0219 333.101 13.1795C332.067 11.3568 329.745 10.7192 327.904 11.7383L314.649 19.2134L301.397 26.6852C299.609 27.7131 297.698 28.1875 295.819 28.1723C295.765 28.172 295.679 28.1746 295.623 28.1723C293.826 28.1218 292.004 27.5795 290.294 26.5689C288.502 25.5095 287.12 24.1318 286.206 22.4911C285.289 20.8538 284.803 18.9631 284.828 16.9243L285.1 -9.39438L285.377 -36.806C285.402 -38.8981 283.724 -40.6251 281.605 -40.6656C279.513 -40.6905 277.786 -39.0119 277.748 -36.8968L277.474 -9.48316L277.218 16.8453C277.198 20.2631 278.003 23.4689 279.589 26.2638C281.16 29.0766 283.482 31.4332 286.4 33.1578C289.259 34.8474 292.347 35.7193 295.477 35.7965C295.565 35.7906 295.663 35.8215 295.751 35.8157C298.961 35.8555 302.161 35.0162 305.122 33.3367L318.374 25.8596L331.66 18.3764Z" fill="white"/>
<path fill-rule="evenodd" clip-rule="evenodd" d="M302.523 -34.5167L302.527 -14.5146C302.541 -12.4076 300.818 -10.6883 298.728 -10.6953C296.621 -10.6809 294.899 -12.4007 294.905 -14.4963L294.901 -34.4983C294.885 -36.602 296.608 -38.3213 298.7 -38.3177C300.807 -38.3321 302.52 -36.6436 302.523 -34.5167ZM265.603 -59.131C263.791 -58.0785 263.174 -55.7517 264.215 -53.9197C265.268 -52.1077 267.596 -51.4938 269.426 -52.5315L282.604 -60.1412L295.78 -67.7475C297.558 -68.7936 299.463 -69.2873 301.343 -69.2913C301.396 -69.2916 301.482 -69.295 301.539 -69.2933C303.336 -69.261 305.163 -68.7373 306.883 -67.7442C308.686 -66.7031 310.082 -65.3395 311.013 -63.7083C311.946 -62.0804 312.451 -60.1947 312.447 -58.1558L312.443 -31.8357L312.445 -4.42263C312.441 -2.33042 314.138 -0.62064 316.256 -0.601695C318.349 -0.598085 320.058 -2.29413 320.075 -4.40959L320.07 -31.8246L320.058 -58.1542C320.043 -61.5721 319.206 -64.7695 317.591 -67.5481C315.991 -70.3447 313.646 -72.6776 310.71 -74.3725C307.834 -76.0328 304.737 -76.8732 301.607 -76.9185C301.519 -76.9118 301.421 -76.9417 301.333 -76.935C298.122 -76.9421 294.931 -76.0703 291.987 -74.3607L278.813 -66.7491L265.603 -59.131Z" fill="white"/>
<path fill-rule="evenodd" clip-rule="evenodd" d="M384.844 149.234L402.16 159.238C403.978 160.304 406.329 159.676 407.372 157.858C408.438 156.04 407.805 153.69 405.991 152.651L388.671 142.647C386.853 141.581 384.503 142.209 383.463 144.027C382.397 145.845 383.003 148.168 384.844 149.234ZM381.983 104.976C383.801 103.937 386.125 104.566 387.191 106.384C388.234 108.201 387.605 110.525 385.787 111.591L372.608 119.199L359.433 126.802C357.638 127.819 356.258 129.226 355.314 130.848C355.291 130.898 355.242 130.971 355.219 131.017C354.344 132.593 353.884 134.433 353.884 136.419C353.884 138.501 354.394 140.392 355.314 142.014C356.258 143.64 357.638 145.02 359.41 146.036L382.202 159.166L405.941 172.878C407.759 173.917 408.388 176.244 407.345 178.085C406.306 179.903 403.978 180.531 402.137 179.488L378.398 165.78L355.606 152.624C352.649 150.906 350.299 148.579 348.7 145.795C347.101 142.984 346.23 139.813 346.23 136.396C346.23 133.076 347.055 129.977 348.581 127.24C348.627 127.167 348.654 127.071 348.7 126.998C350.299 124.21 352.649 121.887 355.606 120.192L368.781 112.584L381.983 104.976Z" fill="white"/>
<path fill-rule="evenodd" clip-rule="evenodd" d="M301.086 348.504L283.769 338.5C281.952 337.434 279.601 338.063 278.558 339.88C277.492 341.698 278.125 344.048 279.939 345.087L297.259 355.092C299.077 356.158 301.427 355.529 302.466 353.711C303.532 351.894 302.926 349.57 301.086 348.504ZM303.946 392.762C302.129 393.801 299.805 393.172 298.739 391.355C297.696 389.537 298.325 387.213 300.143 386.147L313.322 378.54L326.497 370.936C328.292 369.92 329.672 368.512 330.615 366.89C330.638 366.841 330.688 366.768 330.711 366.722C331.585 365.146 332.046 363.305 332.046 361.319C332.046 359.237 331.536 357.346 330.615 355.724C329.672 354.099 328.292 352.718 326.52 351.702L303.728 338.573L279.988 324.861C278.171 323.821 277.542 321.494 278.585 319.653C279.624 317.836 281.952 317.207 283.792 318.25L307.532 331.958L330.324 345.114C333.28 346.832 335.631 349.16 337.23 351.944C338.829 354.754 339.699 357.925 339.699 361.342C339.699 364.663 338.875 367.761 337.349 370.499C337.303 370.572 337.276 370.667 337.23 370.74C335.631 373.528 333.28 375.852 330.324 377.547L317.149 385.154L303.946 392.762Z" fill="white"/>
<path fill-rule="evenodd" clip-rule="evenodd" d="M385.832 385.824L403.149 395.828C404.966 396.894 407.317 396.265 408.36 394.448C409.426 392.63 408.793 390.28 406.979 389.241L389.659 379.236C387.841 378.17 385.491 378.799 384.452 380.617C383.386 382.434 383.992 384.758 385.832 385.824ZM382.972 341.566C384.789 340.527 387.113 341.156 388.179 342.974C389.222 344.791 388.593 347.115 386.775 348.181L373.596 355.788L360.421 363.392C358.626 364.408 357.246 365.816 356.303 367.438C356.28 367.488 356.23 367.56 356.207 367.606C355.333 369.182 354.872 371.023 354.872 373.009C354.872 375.091 355.382 376.982 356.303 378.604C357.246 380.23 358.626 381.61 360.398 382.626L383.19 395.755L406.93 409.468C408.747 410.507 409.376 412.834 408.333 414.675C407.294 416.492 404.966 417.121 403.126 416.078L379.386 402.37L356.594 389.214C353.638 387.496 351.287 385.168 349.688 382.385C348.089 379.574 347.219 376.403 347.219 372.986C347.219 369.666 348.043 366.567 349.569 363.829C349.615 363.757 349.642 363.661 349.688 363.588C351.287 360.8 353.638 358.476 356.594 356.782L369.769 349.174L382.972 341.566Z" fill="white"/>
<path fill-rule="evenodd" clip-rule="evenodd" d="M300.098 111.922L282.781 101.918C280.963 100.852 278.613 101.481 277.57 103.298C276.504 105.116 277.137 107.466 278.95 108.505L296.271 118.51C298.088 119.576 300.439 118.947 301.478 117.129C302.544 115.312 301.938 112.988 300.098 111.922ZM302.958 156.18C301.141 157.219 298.817 156.59 297.751 154.772C296.708 152.955 297.337 150.631 299.154 149.565L312.333 141.958L325.509 134.354C327.303 133.338 328.684 131.93 329.627 130.308C329.65 130.259 329.7 130.186 329.723 130.14C330.597 128.564 331.057 126.723 331.057 124.737C331.057 122.655 330.547 120.764 329.627 119.142C328.684 117.517 327.303 116.136 325.532 115.12L302.74 101.991L279 88.2785C277.183 87.2393 276.554 84.9118 277.597 83.0712C278.636 81.2537 280.963 80.6248 282.804 81.6678L306.543 95.3761L329.336 108.532C332.292 110.25 334.643 112.578 336.242 115.362C337.84 118.172 338.711 121.343 338.711 124.76C338.711 128.081 337.887 131.179 336.36 133.917C336.314 133.99 336.288 134.085 336.242 134.158C334.643 136.946 332.292 139.27 329.336 140.964L316.16 148.572L302.958 156.18Z" fill="white"/>
<path fill-rule="evenodd" clip-rule="evenodd" d="M230.321 58.3131L213.001 48.3089C211.183 47.2429 208.832 47.8756 207.793 49.6893C206.727 51.5069 207.356 53.8574 209.174 54.9004L226.494 64.9046C228.308 65.9706 230.658 65.3379 231.701 63.5242C232.767 61.7067 232.161 59.3791 230.321 58.3131ZM233.178 102.594C231.36 103.637 229.036 103.008 227.97 101.19C226.927 99.3729 227.56 97.0492 229.374 95.9832L242.553 88.3756L255.728 80.768C257.523 79.7518 258.903 78.3484 259.847 76.7226C259.873 76.6765 259.919 76.6037 259.946 76.5538C260.817 74.9817 261.277 73.1373 261.277 71.151C261.277 69.0689 260.794 67.1785 259.847 65.5565C258.903 63.9345 257.523 62.5541 255.755 61.5379L232.959 48.3818L209.22 34.6735C207.406 33.6305 206.773 31.3068 207.816 29.4624C208.859 27.6487 211.183 27.016 213.024 28.059L236.763 41.7711L259.559 54.9464C262.512 56.6681 264.862 58.9918 266.461 61.7795C268.083 64.5634 268.93 67.7613 268.93 71.151C268.93 74.4717 268.11 77.5738 266.584 80.3078C266.534 80.3807 266.511 80.4804 266.461 80.5532C264.862 83.3371 262.512 85.6646 259.559 87.3595L246.38 94.9633L233.178 102.594Z" fill="white"/>
<path fill-rule="evenodd" clip-rule="evenodd" d="M177.734 365.199L195.054 375.203C196.872 376.269 199.222 375.636 200.261 373.822C201.327 372.005 200.699 369.654 198.881 368.611L181.561 358.607C179.747 357.541 177.396 358.174 176.353 359.988C175.287 361.805 175.893 364.133 177.734 365.199ZM174.877 320.918C176.695 319.875 179.018 320.504 180.084 322.321C181.127 324.139 180.495 326.462 178.681 327.528L165.502 335.136L152.326 342.744C150.532 343.76 149.151 345.163 148.208 346.789C148.181 346.835 148.135 346.908 148.108 346.958C147.238 348.53 146.778 350.374 146.778 352.361C146.778 354.443 147.261 356.333 148.208 357.955C149.151 359.577 150.532 360.958 152.3 361.974L175.096 375.13L198.835 388.838C200.649 389.881 201.281 392.205 200.238 394.049C199.195 395.863 196.872 396.496 195.031 395.453L171.292 381.741L148.496 368.565C145.543 366.844 143.193 364.52 141.594 361.732C139.972 358.948 139.124 355.75 139.124 352.361C139.124 349.04 139.945 345.938 141.471 343.204C141.521 343.131 141.544 343.031 141.594 342.958C143.193 340.175 145.543 337.847 148.496 336.152L161.675 328.548L174.877 320.918Z" fill="white"/>
<path fill-rule="evenodd" clip-rule="evenodd" d="M231.321 294.907L214.001 284.903C212.183 283.837 209.832 284.469 208.793 286.283C207.727 288.101 208.356 290.451 210.174 291.494L227.494 301.498C229.308 302.564 231.658 301.932 232.701 300.118C233.767 298.3 233.161 295.973 231.321 294.907ZM234.178 339.188C232.36 340.231 230.036 339.602 228.97 337.784C227.927 335.967 228.56 333.643 230.374 332.577L243.553 324.969L256.728 317.362C258.523 316.346 259.903 314.942 260.847 313.316C260.873 313.27 260.919 313.197 260.946 313.148C261.817 311.575 262.277 309.731 262.277 307.745C262.277 305.663 261.794 303.772 260.847 302.15C259.903 300.528 258.523 299.148 256.755 298.132L233.959 284.976L210.22 271.267C208.406 270.224 207.773 267.901 208.816 266.056C209.859 264.242 212.183 263.61 214.024 264.653L237.763 278.365L260.559 291.54C263.512 293.262 265.862 295.586 267.461 298.373C269.083 301.157 269.93 304.355 269.93 307.745C269.93 311.065 269.11 314.168 267.584 316.902C267.534 316.974 267.511 317.074 267.461 317.147C265.862 319.931 263.512 322.258 260.559 323.953L247.38 331.557L234.178 339.188Z" fill="white"/>
<path fill-rule="evenodd" clip-rule="evenodd" d="M176.742 128.605L194.062 138.609C195.88 139.675 198.23 139.042 199.269 137.229C200.335 135.411 199.706 133.061 197.889 132.018L180.568 122.013C178.755 120.947 176.404 121.58 175.361 123.394C174.295 125.211 174.901 127.539 176.742 128.605ZM173.885 84.3241C175.702 83.2811 178.026 83.9099 179.092 85.7275C180.135 87.545 179.502 89.8687 177.689 90.9347L164.51 98.5424L151.334 106.15C149.54 107.166 148.159 108.57 147.216 110.195C147.189 110.241 147.143 110.314 147.116 110.364C146.246 111.936 145.786 113.781 145.786 115.767C145.786 117.849 146.269 119.739 147.216 121.361C148.159 122.983 149.54 124.364 151.307 125.38L174.103 138.536L197.843 152.245C199.657 153.287 200.289 155.611 199.246 157.456C198.203 159.269 195.88 159.902 194.039 158.859L170.3 145.147L147.504 131.972C144.551 130.25 142.2 127.926 140.601 125.138C138.979 122.355 138.132 119.157 138.132 115.767C138.132 112.446 138.953 109.344 140.479 106.61C140.529 106.537 140.552 106.438 140.601 106.365C142.2 103.581 144.551 101.253 147.504 99.5585L160.683 91.9547L173.885 84.3241Z" fill="white"/>
<path fill-rule="evenodd" clip-rule="evenodd" d="M228.146 9.23138L210.657 -0.475476C208.808 -1.48576 208.142 -3.82693 209.163 -5.65103C210.173 -7.50013 212.512 -8.16998 214.341 -7.14786L231.83 2.55899C233.677 3.56599 234.344 5.90715 233.325 7.73455C232.315 9.58364 230.007 10.2614 228.146 9.23138ZM267.589 -11.0971C267.548 -13.1923 265.813 -14.8615 263.706 -14.8407C261.611 -14.8001 259.944 -13.0622 259.963 -10.9585L260.218 4.25665L260.472 19.4685C260.524 21.5301 260.03 23.4358 259.121 25.0811C259.096 25.1278 259.057 25.2047 259.028 25.2534C258.127 26.8085 256.783 28.1519 255.079 29.1736C253.294 30.2447 251.424 30.8028 249.546 30.825C247.67 30.8504 245.776 30.3767 243.995 29.3836L220.987 16.6024L197.02 3.29646C195.192 2.27763 192.874 2.93039 191.829 4.77356C190.81 6.60095 191.463 8.9191 193.304 9.96095L217.274 23.265L240.299 36.0362C243.295 37.6825 246.496 38.5029 249.709 38.4401C252.931 38.399 256.109 37.4807 259.016 35.737C261.864 34.0288 264.102 31.7294 265.661 29.0143C265.698 28.9341 265.772 28.863 265.809 28.7828C267.374 25.9796 268.16 22.7666 268.095 19.3628L267.836 4.1496L267.589 -11.0971Z" fill="white"/>
<path fill-rule="evenodd" clip-rule="evenodd" d="M179.908 414.28L197.397 423.987C199.246 424.997 199.913 427.339 198.892 429.163C197.882 431.012 195.543 431.682 193.713 430.66L176.224 420.953C174.377 419.946 173.711 417.605 174.73 415.777C175.74 413.928 178.048 413.25 179.908 414.28ZM140.466 434.609C140.507 436.704 142.241 438.373 144.348 438.352C146.443 438.312 148.111 436.574 148.092 434.47L147.836 419.255L147.583 404.043C147.531 401.982 148.024 400.076 148.933 398.431C148.959 398.384 148.998 398.307 149.027 398.258C149.927 396.703 151.272 395.36 152.975 394.338C154.761 393.267 156.631 392.709 158.509 392.687C160.385 392.661 162.279 393.135 164.06 394.128L187.068 406.909L211.035 420.215C212.863 421.234 215.181 420.581 216.226 418.738C217.245 416.911 216.592 414.593 214.751 413.551L190.78 400.247L167.755 387.476C164.76 385.829 161.558 385.009 158.345 385.072C155.124 385.113 151.945 386.031 149.038 387.775C146.191 389.483 143.953 391.782 142.393 394.497C142.356 394.578 142.283 394.649 142.246 394.729C140.681 397.532 139.894 400.745 139.96 404.149L140.218 419.362L140.466 434.609Z" fill="white"/>
<path fill-rule="evenodd" clip-rule="evenodd" d="M229.146 245.813L211.657 236.107C209.808 235.096 209.142 232.755 210.163 230.931C211.173 229.082 213.512 228.412 215.341 229.434L232.83 239.141C234.677 240.148 235.344 242.489 234.325 244.317C233.315 246.166 231.007 246.843 229.146 245.813ZM268.589 225.485C268.548 223.39 266.813 221.721 264.706 221.741C262.611 221.782 260.944 223.52 260.963 225.624L261.218 240.839L261.472 256.051C261.524 258.112 261.03 260.018 260.121 261.663C260.096 261.71 260.057 261.787 260.028 261.835C259.127 263.391 257.783 264.734 256.079 265.756C254.294 266.827 252.424 267.385 250.546 267.407C248.67 267.432 246.776 266.959 244.995 265.966L221.987 253.184L198.02 239.878C196.192 238.86 193.874 239.512 192.829 241.356C191.81 243.183 192.463 245.501 194.304 246.543L218.274 259.847L241.299 272.618C244.295 274.265 247.496 275.085 250.709 275.022C253.931 274.981 257.109 274.063 260.016 272.319C262.864 270.611 265.102 268.311 266.661 265.596C266.698 265.516 266.772 265.445 266.809 265.365C268.374 262.562 269.16 259.349 269.095 255.945L268.836 240.732L268.589 225.485Z" fill="white"/>
<path fill-rule="evenodd" clip-rule="evenodd" d="M178.916 177.687L196.405 187.393C198.254 188.404 198.921 190.745 197.9 192.569C196.89 194.418 194.55 195.088 192.721 194.066L175.232 184.359C173.385 183.352 172.719 181.011 173.737 179.183C174.748 177.334 177.055 176.657 178.916 177.687ZM139.474 198.015C139.514 200.11 141.249 201.779 143.356 201.759C145.451 201.718 147.118 199.98 147.1 197.876L146.844 182.661L146.591 167.449C146.539 165.388 147.032 163.482 147.941 161.837C147.967 161.79 148.006 161.713 148.035 161.665C148.935 160.109 150.28 158.766 151.983 157.744C153.769 156.673 155.638 156.115 157.517 156.093C159.393 156.068 161.287 156.541 163.067 157.534L186.076 170.316L210.043 183.622C211.87 184.64 214.189 183.988 215.234 182.144C216.253 180.317 215.6 177.999 213.759 176.957L189.788 163.653L166.763 150.882C163.768 149.235 160.566 148.415 157.353 148.478C154.131 148.519 150.953 149.437 148.046 151.181C145.199 152.889 142.96 155.189 141.401 157.904C141.364 157.984 141.291 158.055 141.254 158.135C139.689 160.938 138.902 164.151 138.968 167.555L139.226 182.768L139.474 198.015Z" fill="white"/>
<path fill-rule="evenodd" clip-rule="evenodd" d="M227.169 146.438L209.848 136.434C208.031 135.368 205.68 136.001 204.641 137.814C203.575 139.632 204.204 141.982 206.021 143.025L223.342 153.03C225.155 154.096 227.506 153.463 228.549 151.649C229.615 149.832 229.009 147.504 227.169 146.438ZM230.025 190.719C228.208 191.762 225.884 191.133 224.818 189.315C223.775 187.498 224.408 185.174 226.221 184.108L239.401 176.501L252.576 168.893C254.371 167.877 255.751 166.473 256.694 164.848C256.721 164.802 256.767 164.729 256.794 164.679C257.664 163.107 258.124 161.262 258.124 159.276C258.124 157.194 257.641 155.303 256.694 153.682C255.751 152.06 254.371 150.679 252.603 149.663L229.807 136.507L206.067 122.798C204.254 121.755 203.621 119.432 204.664 117.587C205.707 115.774 208.031 115.141 209.871 116.184L233.611 129.896L256.407 143.071C259.359 144.793 261.71 147.117 263.309 149.905C264.931 152.688 265.778 155.886 265.778 159.276C265.778 162.597 264.958 165.699 263.431 168.433C263.382 168.506 263.359 168.605 263.309 168.678C261.71 171.462 259.359 173.79 256.407 175.484L243.227 183.088L230.025 190.719Z" fill="white"/>
<path fill-rule="evenodd" clip-rule="evenodd" d="M180.898 277.074L198.218 287.078C200.036 288.144 202.386 287.511 203.425 285.697C204.491 283.88 203.863 281.529 202.045 280.486L184.725 270.482C182.911 269.416 180.56 270.049 179.517 271.863C178.451 273.68 179.057 276.008 180.898 277.074ZM178.041 232.793C179.859 231.75 182.182 232.379 183.248 234.196C184.291 236.014 183.659 238.337 181.845 239.403L168.666 247.011L155.49 254.619C153.696 255.635 152.315 257.038 151.372 258.664C151.345 258.71 151.299 258.783 151.273 258.833C150.402 260.405 149.942 262.249 149.942 264.236C149.942 266.318 150.425 268.208 151.372 269.83C152.315 271.452 153.696 272.833 155.464 273.849L178.26 287.005L201.999 300.713C203.813 301.756 204.445 304.08 203.402 305.924C202.359 307.738 200.036 308.371 198.195 307.328L174.456 293.616L151.66 280.44C148.707 278.719 146.357 276.395 144.758 273.607C143.136 270.823 142.288 267.625 142.288 264.236C142.288 260.915 143.109 257.813 144.635 255.079C144.685 255.006 144.708 254.906 144.758 254.833C146.357 252.05 148.707 249.722 151.66 248.027L164.839 240.423L178.041 232.793Z" fill="white"/>
<path fill-rule="evenodd" clip-rule="evenodd" d="M228.157 383.032L210.836 373.028C209.019 371.962 206.668 372.594 205.629 374.408C204.563 376.226 205.192 378.576 207.01 379.619L224.33 389.623C226.144 390.689 228.494 390.057 229.537 388.243C230.603 386.425 229.997 384.098 228.157 383.032ZM231.014 427.313C229.196 428.356 226.872 427.727 225.806 425.909C224.763 424.092 225.396 421.768 227.21 420.702L240.389 413.094L253.564 405.487C255.359 404.471 256.739 403.067 257.682 401.441C257.709 401.395 257.755 401.322 257.782 401.273C258.653 399.7 259.113 397.856 259.113 395.87C259.113 393.788 258.63 391.897 257.682 390.275C256.739 388.653 255.359 387.273 253.591 386.257L230.795 373.101L207.056 359.392C205.242 358.349 204.609 356.026 205.652 354.181C206.695 352.367 209.019 351.735 210.859 352.778L234.599 366.49L257.395 379.665C260.347 381.387 262.698 383.711 264.297 386.498C265.919 389.282 266.766 392.48 266.766 395.87C266.766 399.19 265.946 402.293 264.42 405.027C264.37 405.099 264.347 405.199 264.297 405.272C262.698 408.056 260.347 410.383 257.395 412.078L244.216 419.682L231.014 427.313Z" fill="white"/>
<path fill-rule="evenodd" clip-rule="evenodd" d="M179.906 40.4798L197.226 50.484C199.044 51.55 201.394 50.9173 202.433 49.1036C203.499 47.2861 202.87 44.9355 201.053 43.8925L183.732 33.8883C181.919 32.8223 179.568 33.455 178.525 35.2688C177.459 37.0863 178.065 39.4138 179.906 40.4798ZM177.049 -3.80094C178.866 -4.84392 181.19 -4.21506 182.256 -2.39751C183.299 -0.579958 182.666 1.74375 180.853 2.80974L167.674 10.4174L154.498 18.025C152.704 19.0412 151.323 20.4446 150.38 22.0704C150.353 22.1164 150.307 22.1893 150.28 22.2391C149.41 23.8113 148.95 25.6557 148.95 27.6419C148.95 29.7241 149.433 31.6145 150.38 33.2365C151.323 34.8585 152.704 36.2389 154.471 37.255L177.267 50.4112L201.007 64.1195C202.821 65.1625 203.453 67.4862 202.41 69.3306C201.367 71.1443 199.044 71.777 197.203 70.734L173.464 57.0219L150.668 43.8465C147.715 42.1248 145.364 39.8011 143.765 37.0134C142.144 34.2296 141.296 31.0316 141.296 27.6419C141.296 24.3213 142.117 21.2191 143.643 18.4851C143.693 18.4123 143.716 18.3126 143.766 18.2397C145.364 15.4559 147.715 13.1284 150.668 11.4335L163.847 3.82971L177.049 -3.80094Z" fill="white"/>
<path fill-rule="evenodd" clip-rule="evenodd" d="M251.011 230.652L250.811 250.653C250.804 252.76 249.064 254.461 246.974 254.433C244.867 254.426 243.163 252.689 243.19 250.593L243.39 230.592C243.395 228.489 245.135 226.787 247.228 226.812C249.335 226.819 251.03 228.525 251.011 230.652ZM214.344 205.663C212.521 206.697 211.88 209.017 212.903 210.86C213.937 212.682 216.259 213.32 218.1 212.301L231.354 204.826L244.607 197.354C246.395 196.326 248.306 195.852 250.185 195.867C250.239 195.867 250.325 195.864 250.381 195.867C252.178 195.917 253.999 196.46 255.709 197.47C257.502 198.53 258.884 199.907 259.798 201.548C260.714 203.185 261.2 205.076 261.176 207.115L260.903 233.433L260.626 260.845C260.602 262.937 262.28 264.664 264.399 264.705C266.491 264.73 268.218 263.051 268.256 260.936L268.53 233.522L268.786 207.194C268.806 203.776 268.001 200.57 266.415 197.775C264.844 194.962 262.522 192.606 259.604 190.881C256.745 189.192 253.657 188.32 250.527 188.243C250.438 188.248 250.341 188.218 250.253 188.223C247.043 188.184 243.843 189.023 240.882 190.702L227.63 198.179L214.344 205.663Z" fill="white"/>
<path fill-rule="evenodd" clip-rule="evenodd" d="M157.043 192.86L157.243 172.859C157.25 170.752 158.991 169.05 161.081 169.079C163.188 169.086 164.892 170.823 164.865 172.918L164.665 192.919C164.66 195.023 162.919 196.725 160.827 196.7C158.72 196.693 157.025 194.987 157.043 192.86ZM193.711 217.849C195.533 216.815 196.174 214.495 195.152 212.652C194.118 210.829 191.796 210.192 189.955 211.211L176.7 218.686L163.447 226.158C161.66 227.186 159.749 227.66 157.869 227.645C157.816 227.645 157.73 227.647 157.673 227.645C155.877 227.594 154.055 227.052 152.345 226.042C150.553 224.982 149.171 223.604 148.257 221.964C147.34 220.326 146.854 218.436 146.879 216.397L147.151 190.078L147.428 162.667C147.453 160.575 145.775 158.848 143.656 158.807C141.564 158.782 139.837 160.461 139.799 162.576L139.525 189.989L139.269 216.318C139.249 219.736 140.053 222.942 141.64 225.736C143.211 228.549 145.533 230.906 148.451 232.63C151.31 234.32 154.398 235.192 157.528 235.269C157.616 235.263 157.714 235.294 157.802 235.288C161.012 235.328 164.212 234.489 167.173 232.809L180.424 225.332L193.711 217.849Z" fill="white"/>
<path fill-rule="evenodd" clip-rule="evenodd" d="M156.055 -43.7336L156.255 -63.7347C156.262 -65.8418 158.003 -67.5434 160.093 -67.5152C162.2 -67.5081 163.903 -65.7708 163.877 -63.6755L163.677 -43.6744C163.672 -41.5707 161.931 -39.869 159.839 -39.8939C157.732 -39.901 156.036 -41.6068 156.055 -43.7336ZM192.722 -18.7447C194.545 -19.7788 195.186 -22.0992 194.164 -23.9416C193.13 -25.7643 190.807 -26.4019 188.967 -25.3828L175.712 -17.9077L162.459 -10.4359C160.671 -9.40798 158.761 -8.93363 156.881 -8.94877C156.828 -8.94908 156.742 -8.94653 156.685 -8.94879C154.889 -8.99934 153.067 -9.54162 151.357 -10.5522C149.564 -11.6116 148.183 -12.9893 147.268 -14.63C146.352 -16.2673 145.866 -18.158 145.891 -20.1968L146.163 -46.5155L146.44 -73.9271C146.465 -76.0192 144.786 -77.7462 142.668 -77.7867C140.576 -77.8116 138.849 -76.133 138.81 -74.0179L138.537 -46.6043L138.281 -20.2758C138.261 -16.858 139.065 -13.6522 140.651 -10.8573C142.223 -8.04453 144.545 -5.6879 147.463 -3.96325C150.322 -2.27372 153.41 -1.40183 156.54 -1.32463C156.628 -1.33047 156.725 -1.29956 156.814 -1.3054C160.024 -1.26556 163.223 -2.10489 166.185 -3.78441L179.436 -11.2615L192.722 -18.7447Z" fill="white"/>
<path fill-rule="evenodd" clip-rule="evenodd" d="M245.91 112.117L263.227 122.121C265.044 123.187 267.395 122.558 268.438 120.741C269.504 118.923 268.871 116.573 267.057 115.534L249.737 105.529C247.92 104.463 245.569 105.092 244.53 106.91C243.464 108.727 244.07 111.051 245.91 112.117ZM243.05 67.8593C244.867 66.8202 247.191 67.449 248.257 69.2666C249.3 71.0841 248.671 73.4078 246.854 74.4738L233.674 82.0815L220.499 89.6853C218.705 90.7014 217.324 92.1087 216.381 93.7307C216.358 93.7805 216.308 93.8534 216.285 93.8994C215.411 95.4754 214.951 97.3159 214.951 99.3022C214.951 101.384 215.461 103.275 216.381 104.897C217.324 106.523 218.705 107.903 220.476 108.919L243.268 122.048L267.008 135.761C268.825 136.8 269.454 139.127 268.411 140.968C267.372 142.785 265.044 143.414 263.204 142.371L239.464 128.663L216.672 115.507C213.716 113.789 211.365 111.461 209.766 108.678C208.167 105.867 207.297 102.696 207.297 99.2792C207.297 95.9585 208.121 92.8602 209.647 90.1224C209.693 90.0495 209.72 89.9537 209.766 89.8808C211.365 87.0931 213.716 84.7694 216.672 83.0746L229.848 75.467L243.05 67.8593Z" fill="white"/>
<path fill-rule="evenodd" clip-rule="evenodd" d="M162.16 311.395L144.843 301.39C143.026 300.324 140.675 300.953 139.632 302.771C138.566 304.588 139.199 306.939 141.013 307.978L158.333 317.982C160.151 319.048 162.501 318.419 163.54 316.602C164.606 314.784 164.001 312.461 162.16 311.395ZM165.021 355.652C163.203 356.692 160.879 356.063 159.813 354.245C158.77 352.428 159.399 350.104 161.217 349.038L174.396 341.43L187.571 333.826C189.366 332.81 190.746 331.403 191.69 329.781C191.713 329.731 191.762 329.658 191.785 329.612C192.66 328.036 193.12 326.196 193.12 324.21C193.12 322.127 192.61 320.237 191.69 318.615C190.746 316.989 189.366 315.609 187.594 314.593L164.802 301.463L141.063 287.751C139.245 286.712 138.616 284.384 139.659 282.544C140.698 280.726 143.026 280.097 144.866 281.14L168.606 294.849L191.398 308.005C194.354 309.723 196.705 312.05 198.304 314.834C199.903 317.645 200.773 320.816 200.773 324.233C200.773 327.553 199.949 330.651 198.423 333.389C198.377 333.462 198.35 333.558 198.304 333.631C196.705 336.419 194.354 338.742 191.398 340.437L178.223 348.045L165.021 355.652Z" fill="white"/>
<path fill-rule="evenodd" clip-rule="evenodd" d="M246.899 348.711L264.215 358.715C266.033 359.781 268.383 359.152 269.426 357.335C270.492 355.517 269.859 353.167 268.046 352.127L250.725 342.123C248.908 341.057 246.557 341.686 245.518 343.504C244.452 345.321 245.058 347.645 246.899 348.711ZM244.038 304.453C245.856 303.414 248.179 304.043 249.245 305.86C250.288 307.678 249.659 310.002 247.842 311.068L234.663 318.675L221.487 326.279C219.693 327.295 218.312 328.702 217.369 330.324C217.346 330.374 217.296 330.447 217.273 330.493C216.399 332.069 215.939 333.91 215.939 335.896C215.939 337.978 216.449 339.868 217.369 341.49C218.312 343.116 219.693 344.497 221.464 345.513L244.257 358.642L267.996 372.354C269.813 373.393 270.442 375.721 269.399 377.562C268.36 379.379 266.033 380.008 264.192 378.965L240.453 365.257L217.661 352.101C214.704 350.383 212.354 348.055 210.755 345.271C209.156 342.461 208.285 339.289 208.285 335.873C208.285 332.552 209.11 329.454 210.636 326.716C210.682 326.643 210.709 326.547 210.755 326.475C212.354 323.687 214.704 321.363 217.661 319.668L230.836 312.061L244.038 304.453Z" fill="white"/>
<path fill-rule="evenodd" clip-rule="evenodd" d="M161.164 74.8009L143.847 64.7967C142.03 63.7307 139.679 64.3596 138.636 66.1771C137.57 67.9947 138.203 70.3452 140.017 71.3844L157.337 81.3886C159.155 82.4545 161.505 81.8257 162.544 80.0081C163.61 78.1906 163.005 75.8669 161.164 74.8009ZM164.024 119.059C162.207 120.098 159.883 119.469 158.817 117.651C157.774 115.834 158.403 113.51 160.221 112.444L173.4 104.837L186.575 97.2327C188.37 96.2166 189.75 94.8093 190.693 93.1873C190.716 93.1375 190.766 93.0646 190.789 93.0186C191.664 91.4426 192.124 89.6021 192.124 87.6158C192.124 85.5337 191.614 83.6433 190.693 82.0213C189.75 80.3954 188.37 79.015 186.598 77.9989L163.806 64.8695L140.067 51.1574C138.249 50.1182 137.62 47.7907 138.663 45.9501C139.702 44.1326 142.03 43.5037 143.87 44.5467L167.61 58.255L190.402 71.4112C193.358 73.1291 195.709 75.4566 197.308 78.2404C198.907 81.0511 199.777 84.2223 199.777 87.6388C199.777 90.9595 198.953 94.0577 197.427 96.7956C197.381 96.8684 197.354 96.9643 197.308 97.0371C195.709 99.8248 193.358 102.149 190.402 103.843L177.227 111.451L164.024 119.059Z" fill="white"/>
<path fill-rule="evenodd" clip-rule="evenodd" d="M38.6439 58.3131L55.9643 48.3089C57.7819 47.2429 60.1324 47.8756 61.1716 49.6893C62.2376 51.5069 61.6087 53.8574 59.7912 54.9004L42.4707 64.9046C40.657 65.9706 38.3065 65.3379 37.2635 63.5242C36.1975 61.7067 36.8034 59.3791 38.6439 58.3131ZM35.7872 102.594C37.6048 103.637 39.9285 103.008 40.9945 101.19C42.0375 99.3729 41.4048 97.0492 39.591 95.9832L26.4119 88.3756L13.2365 80.7679C11.442 79.7518 10.0616 78.3484 9.11829 76.7226C9.09145 76.6765 9.04544 76.6037 9.0186 76.5538C8.14817 74.9817 7.68802 73.1373 7.68802 71.151C7.68802 69.0689 8.17117 67.1785 9.11829 65.5565C10.0616 63.9345 11.442 62.5541 13.2097 61.5379L36.0058 48.3818L59.7452 34.6735C61.5589 33.6305 62.1916 31.3068 61.1486 29.4624C60.1056 27.6487 57.7819 27.016 55.9413 28.059L32.202 41.7711L9.40588 54.9464C6.45332 56.6681 4.10277 58.9918 2.50379 61.7795C0.881795 64.5634 0.034372 67.7613 0.0343722 71.151C0.0343724 74.4717 0.854952 77.5738 2.38108 80.3078C2.43093 80.3807 2.45394 80.4804 2.50379 80.5532C4.10277 83.3371 6.45332 85.6646 9.40588 87.3594L22.585 94.9633L35.7872 102.594Z" fill="white"/>
<path fill-rule="evenodd" clip-rule="evenodd" d="M91.2428 365.199L73.9224 375.203C72.1048 376.269 69.7543 375.636 68.7151 373.822C67.6491 372.005 68.278 369.654 70.0956 368.611L87.416 358.607C89.2297 357.541 91.5802 358.174 92.6232 359.988C93.6892 361.805 93.0834 364.133 91.2428 365.199ZM94.0995 320.918C92.2819 319.875 89.9582 320.504 88.8923 322.321C87.8493 324.139 88.482 326.462 90.2957 327.528L103.475 335.136L116.65 342.744C118.445 343.76 119.825 345.163 120.768 346.789C120.795 346.835 120.841 346.908 120.868 346.958C121.739 348.53 122.199 350.374 122.199 352.361C122.199 354.443 121.716 356.333 120.768 357.955C119.825 359.577 118.445 360.958 116.677 361.974L93.8809 375.13L70.1416 388.838C68.3279 389.881 67.6952 392.205 68.7381 394.049C69.7811 395.863 72.1048 396.496 73.9454 395.453L97.6848 381.741L120.481 368.565C123.433 366.844 125.784 364.52 127.383 361.732C129.005 358.948 129.852 355.75 129.852 352.361C129.852 349.04 129.032 345.938 127.506 343.204C127.456 343.131 127.433 343.031 127.383 342.958C125.784 340.175 123.433 337.847 120.481 336.152L107.302 328.548L94.0995 320.918Z" fill="white"/>
<path fill-rule="evenodd" clip-rule="evenodd" d="M37.6439 294.907L54.9643 284.903C56.7819 283.837 59.1324 284.469 60.1716 286.283C61.2376 288.101 60.6087 290.451 58.7912 291.494L41.4707 301.498C39.657 302.564 37.3065 301.932 36.2635 300.118C35.1975 298.3 35.8034 295.973 37.6439 294.907ZM34.7872 339.188C36.6048 340.231 38.9285 339.602 39.9945 337.784C41.0375 335.967 40.4048 333.643 38.591 332.577L25.4119 324.969L12.2365 317.362C10.442 316.346 9.06158 314.942 8.11829 313.316C8.09145 313.27 8.04544 313.197 8.0186 313.148C7.14817 311.575 6.68802 309.731 6.68802 307.745C6.68802 305.663 7.17117 303.772 8.11829 302.15C9.06158 300.528 10.442 299.148 12.2097 298.132L35.0058 284.976L58.7452 271.267C60.5589 270.224 61.1916 267.901 60.1486 266.056C59.1056 264.242 56.7819 263.61 54.9413 264.653L31.202 278.365L8.40588 291.54C5.45332 293.262 3.10277 295.586 1.50379 298.373C-0.118205 301.157 -0.965628 304.355 -0.965628 307.745C-0.965628 311.065 -0.145048 314.168 1.38108 316.902C1.43093 316.974 1.45394 317.074 1.50379 317.147C3.10277 319.931 5.45332 322.258 8.40588 323.953L21.585 331.557L34.7872 339.188Z" fill="white"/>
<path fill-rule="evenodd" clip-rule="evenodd" d="M92.2311 128.605L74.9107 138.609C73.0931 139.675 70.7426 139.042 69.7034 137.229C68.6374 135.411 69.2663 133.061 71.0838 132.018L88.4043 122.013C90.218 120.947 92.5685 121.58 93.6115 123.394C94.6775 125.211 94.0716 127.539 92.2311 128.605ZM95.0878 84.3241C93.2702 83.2811 90.9465 83.9099 89.8805 85.7275C88.8375 87.545 89.4702 89.8687 91.284 90.9347L104.463 98.5424L117.638 106.15C119.433 107.166 120.813 108.57 121.757 110.195C121.784 110.241 121.83 110.314 121.856 110.364C122.727 111.936 123.187 113.781 123.187 115.767C123.187 117.849 122.704 119.739 121.757 121.361C120.813 122.983 119.433 124.364 117.665 125.38L94.8692 138.536L71.1299 152.245C69.3161 153.287 68.6834 155.611 69.7264 157.456C70.7694 159.269 73.0931 159.902 74.9337 158.859L98.673 145.147L121.469 131.972C124.422 130.25 126.772 127.926 128.371 125.138C129.993 122.355 130.841 119.157 130.841 115.767C130.841 112.446 130.02 109.344 128.494 106.61C128.444 106.537 128.421 106.438 128.371 106.365C126.772 103.581 124.422 101.253 121.469 99.5585L108.29 91.9547L95.0878 84.3241Z" fill="white"/>
<path fill-rule="evenodd" clip-rule="evenodd" d="M40.8186 9.23141L58.3074 -0.475454C60.1565 -1.48574 60.8231 -3.82691 59.8023 -5.65101C58.792 -7.5001 56.4528 -8.16996 54.6234 -7.14784L37.1346 2.55902C35.2875 3.56601 34.621 5.90717 35.6398 7.73457C36.6501 9.58367 38.9577 10.2614 40.8186 9.23141ZM1.37627 -11.0971C1.41682 -13.1923 3.15142 -14.8615 5.25841 -14.8406C7.35356 -14.8001 9.02079 -13.0622 9.00194 -10.9585L8.74642 4.25666L8.49287 19.4685C8.44114 21.5302 8.93454 23.4359 9.84353 25.0811C9.86919 25.1278 9.90799 25.2047 9.93693 25.2534C10.8374 26.8086 12.1823 28.1519 13.8856 29.1737C15.6712 30.2447 17.5408 30.8028 19.419 30.825C21.2951 30.8504 23.189 30.3768 24.9697 29.3836L47.9782 16.6025L71.9454 3.29648C73.7728 2.27765 76.0909 2.93041 77.136 4.77359C78.1549 6.60098 77.5021 8.91913 75.6609 9.96098L51.6904 23.265L28.6655 36.0362C25.6703 37.6826 22.4685 38.5029 19.2554 38.4401C16.0337 38.3991 12.8554 37.4807 9.94856 35.737C7.10093 34.0289 4.86283 31.7294 3.30335 29.0143C3.26652 28.9341 3.19286 28.8631 3.15602 28.7829C1.59127 25.9796 0.804429 22.7666 0.869831 19.3628L1.12864 4.14962L1.37627 -11.0971Z" fill="white"/>
<path fill-rule="evenodd" clip-rule="evenodd" d="M89.0564 414.28L71.5676 423.987C69.7185 424.997 69.0519 427.339 70.0727 429.163C71.083 431.012 73.4222 431.682 75.2515 430.66L92.7403 420.953C94.5875 419.946 95.254 417.605 94.2352 415.777C93.2249 413.928 90.9173 413.25 89.0564 414.28ZM128.499 434.609C128.458 436.704 126.724 438.373 124.617 438.352C122.521 438.312 120.854 436.574 120.873 434.47L121.129 419.255L121.382 404.043C121.434 401.982 120.94 400.076 120.031 398.431C120.006 398.384 119.967 398.307 119.938 398.258C119.038 396.703 117.693 395.36 115.989 394.338C114.204 393.267 112.334 392.709 110.456 392.687C108.58 392.661 106.686 393.135 104.905 394.128L81.8968 406.909L57.9296 420.215C56.1022 421.234 53.7841 420.581 52.739 418.738C51.7201 416.911 52.3729 414.593 54.2141 413.551L78.1846 400.247L101.209 387.475C104.205 385.829 107.407 385.009 110.62 385.072C113.841 385.113 117.02 386.031 119.926 387.775C122.774 389.483 125.012 391.782 126.572 394.497C126.608 394.578 126.682 394.649 126.719 394.729C128.284 397.532 129.071 400.745 129.005 404.149L128.746 419.362L128.499 434.609Z" fill="white"/>
<path fill-rule="evenodd" clip-rule="evenodd" d="M39.8186 245.813L57.3074 236.107C59.1565 235.096 59.8231 232.755 58.8023 230.931C57.792 229.082 55.4528 228.412 53.6234 229.434L36.1346 239.141C34.2875 240.148 33.621 242.489 34.6398 244.317C35.6501 246.166 37.9577 246.843 39.8186 245.813ZM0.37627 225.485C0.416821 223.39 2.15142 221.721 4.25841 221.741C6.35356 221.782 8.02079 223.52 8.00194 225.624L7.74642 240.839L7.49287 256.051C7.44114 258.112 7.93454 260.018 8.84353 261.663C8.86919 261.71 8.90799 261.787 8.93693 261.835C9.83737 263.391 11.1823 264.734 12.8856 265.756C14.6712 266.827 16.5408 267.385 18.419 267.407C20.2951 267.432 22.189 266.959 23.9697 265.966L46.9782 253.185L70.9454 239.879C72.7728 238.86 75.0909 239.512 76.136 241.356C77.1549 243.183 76.5021 245.501 74.6609 246.543L50.6904 259.847L27.6655 272.618C24.6703 274.265 21.4685 275.085 18.2554 275.022C15.0337 274.981 11.8554 274.063 8.94856 272.319C6.10093 270.611 3.86283 268.311 2.30335 265.596C2.26652 265.516 2.19286 265.445 2.15602 265.365C0.591271 262.562 -0.195571 259.349 -0.130169 255.945L0.128642 240.732L0.37627 225.485Z" fill="white"/>
<path fill-rule="evenodd" clip-rule="evenodd" d="M90.0564 177.69L72.5676 187.397C70.7185 188.408 70.0519 190.749 71.0727 192.573C72.083 194.422 74.4222 195.092 76.2515 194.07L93.7403 184.363C95.5875 183.356 96.254 181.015 95.2352 179.187C94.2249 177.338 91.9173 176.66 90.0564 177.69ZM129.499 198.019C129.458 200.114 127.724 201.783 125.617 201.763C123.521 201.722 121.854 199.984 121.873 197.88L122.129 182.665L122.382 167.453C122.434 165.392 121.94 163.486 121.031 161.841C121.006 161.794 120.967 161.717 120.938 161.668C120.038 160.113 118.693 158.77 116.989 157.748C115.204 156.677 113.334 156.119 111.456 156.097C109.58 156.071 107.686 156.545 105.905 157.538L82.8968 170.319L58.9296 183.625C57.1022 184.644 54.7841 183.991 53.739 182.148C52.7201 180.321 53.3729 178.003 55.2141 176.961L79.1846 163.657L102.209 150.886C105.205 149.239 108.407 148.419 111.62 148.482C114.841 148.523 118.02 149.441 120.926 151.185C123.774 152.893 126.012 155.192 127.572 157.908C127.608 157.988 127.682 158.059 127.719 158.139C129.284 160.942 130.071 164.155 130.005 167.559L129.746 182.772L129.499 198.019Z" fill="white"/>
<path fill-rule="evenodd" clip-rule="evenodd" d="M41.808 146.438L59.1284 136.434C60.946 135.368 63.2965 136.001 64.3356 137.814C65.4016 139.632 64.7728 141.982 62.9552 143.025L45.6348 153.03C43.8211 154.096 41.4705 153.463 40.4276 151.649C39.3616 149.832 39.9674 147.504 41.808 146.438ZM38.9513 190.719C40.7688 191.762 43.0925 191.133 44.1585 189.315C45.2015 187.498 44.5688 185.174 42.7551 184.108L29.5759 176.501L16.4006 168.893C14.6061 167.877 13.2256 166.473 12.2824 164.848C12.2555 164.802 12.2095 164.729 12.1827 164.679C11.3122 163.107 10.8521 161.262 10.8521 159.276C10.8521 157.194 11.3352 155.303 12.2824 153.681C13.2256 152.06 14.6061 150.679 16.3738 149.663L39.1698 136.507L62.9092 122.798C64.7229 121.755 65.3556 119.432 64.3126 117.587C63.2697 115.774 60.946 115.141 59.1054 116.184L35.366 129.896L12.5699 143.071C9.61738 144.793 7.26684 147.117 5.66785 149.905C4.04586 152.688 3.19843 155.886 3.19843 159.276C3.19843 162.597 4.01901 165.699 5.54515 168.433C5.59499 168.506 5.618 168.605 5.66785 168.678C7.26684 171.462 9.61738 173.79 12.5699 175.484L25.7491 183.088L38.9513 190.719Z" fill="white"/>
<path fill-rule="evenodd" clip-rule="evenodd" d="M88.0787 277.074L70.7583 287.078C68.9408 288.144 66.5902 287.511 65.5511 285.697C64.4851 283.88 65.1139 281.529 66.9315 280.486L84.2519 270.482C86.0656 269.416 88.4162 270.049 89.4592 271.863C90.5251 273.68 89.9193 276.008 88.0787 277.074ZM90.9354 232.793C89.1179 231.75 86.7942 232.379 85.7282 234.196C84.6852 236.014 85.3179 238.337 87.1316 239.403L100.311 247.011L113.486 254.619C115.281 255.635 116.661 257.038 117.604 258.664C117.631 258.71 117.677 258.783 117.704 258.833C118.574 260.405 119.035 262.249 119.035 264.236C119.035 266.318 118.551 268.208 117.604 269.83C116.661 271.452 115.281 272.833 113.513 273.849L90.7169 287.005L66.9775 300.713C65.1638 301.756 64.5311 304.08 65.5741 305.924C66.6171 307.738 68.9408 308.371 70.7813 307.328L94.5207 293.616L117.317 280.44C120.269 278.719 122.62 276.395 124.219 273.607C125.841 270.823 126.688 267.625 126.688 264.236C126.688 260.915 125.868 257.813 124.342 255.079C124.292 255.006 124.269 254.906 124.219 254.833C122.62 252.05 120.269 249.722 117.317 248.027L104.138 240.423L90.9354 232.793Z" fill="white"/>
<path fill-rule="evenodd" clip-rule="evenodd" d="M40.8119 383.032L58.1323 373.028C59.9499 371.962 62.3004 372.594 63.3396 374.408C64.4055 376.226 63.7767 378.576 61.9591 379.619L44.6387 389.623C42.825 390.689 40.4745 390.057 39.4315 388.243C38.3655 386.425 38.9713 384.098 40.8119 383.032ZM37.9552 427.313C39.7727 428.356 42.0964 427.727 43.1624 425.909C44.2054 424.092 43.5727 421.768 41.759 420.702L28.5798 413.094L15.4045 405.487C13.61 404.471 12.2295 403.067 11.2863 401.441C11.2594 401.395 11.2134 401.322 11.1866 401.273C10.3161 399.7 9.85599 397.856 9.85599 395.87C9.85599 393.788 10.3391 391.897 11.2863 390.275C12.2295 388.653 13.61 387.273 15.3777 386.257L38.1738 373.101L61.9131 359.392C63.7268 358.349 64.3595 356.026 63.3165 354.181C62.2736 352.367 59.9499 351.735 58.1093 352.778L34.3699 366.49L11.5738 379.665C8.62129 381.387 6.27074 383.711 4.67175 386.498C3.04976 389.282 2.20234 392.48 2.20234 395.87C2.20234 399.19 3.02292 402.293 4.54905 405.027C4.5989 405.099 4.62191 405.199 4.67176 405.272C6.27074 408.056 8.62129 410.383 11.5739 412.078L24.753 419.682L37.9552 427.313Z" fill="white"/>
<path fill-rule="evenodd" clip-rule="evenodd" d="M89.067 40.4798L71.7466 50.484C69.9291 51.55 67.5785 50.9173 66.5394 49.1036C65.4734 47.2861 66.1022 44.9355 67.9198 43.8925L85.2402 33.8883C87.0539 32.8223 89.4045 33.455 90.4474 35.2688C91.5134 37.0863 90.9076 39.4138 89.067 40.4798ZM91.9237 -3.80094C90.1062 -4.84392 87.7825 -4.21506 86.7165 -2.39751C85.6735 -0.579956 86.3062 1.74375 88.1199 2.80974L101.299 10.4174L114.474 18.025C116.269 19.0412 117.649 20.4446 118.593 22.0704C118.619 22.1164 118.666 22.1893 118.692 22.2391C119.563 23.8113 120.023 25.6557 120.023 27.6419C120.023 29.7241 119.54 31.6145 118.593 33.2365C117.649 34.8585 116.269 36.2389 114.501 37.255L91.7052 50.4112L67.9658 64.1195C66.1521 65.1625 65.5194 67.4862 66.5624 69.3306C67.6053 71.1443 69.9291 71.777 71.7696 70.734L95.509 57.0219L118.305 43.8465C121.258 42.1248 123.608 39.8011 125.207 37.0134C126.829 34.2296 127.677 31.0316 127.677 27.6419C127.677 24.3213 126.856 21.2192 125.33 18.4852C125.28 18.4123 125.257 18.3126 125.207 18.2397C123.608 15.4559 121.258 13.1284 118.305 11.4335L105.126 3.82971L91.9237 -3.80094Z" fill="white"/>
<path fill-rule="evenodd" clip-rule="evenodd" d="M17.9535 230.652L18.1534 250.653C18.1605 252.76 19.9011 254.461 21.9912 254.433C24.0983 254.426 25.8019 252.689 25.775 250.593L25.5751 230.592C25.57 228.489 23.8294 226.787 21.7373 226.812C19.6302 226.819 17.9347 228.525 17.9535 230.652ZM54.6209 205.663C56.4436 206.697 57.0845 209.017 56.0621 210.86C55.0281 212.682 52.7057 213.32 50.8652 212.301L37.6104 204.826L24.3576 197.354C22.5698 196.326 20.6592 195.852 18.7796 195.867C18.7264 195.867 18.6402 195.865 18.5837 195.867C16.7873 195.917 14.9654 196.46 13.2554 197.47C11.463 198.53 10.0813 199.907 9.16688 201.548C8.25046 203.185 7.76441 205.076 7.78901 207.115L8.06143 233.433L8.33841 260.845C8.36332 262.937 6.68477 264.664 4.56629 264.705C2.47422 264.73 0.747265 263.051 0.708702 260.936L0.435012 233.522L0.179107 207.194C0.159058 203.776 0.963579 200.57 2.54992 197.775C4.12125 194.963 6.44319 192.606 9.36135 190.881C12.2201 189.192 15.3082 188.32 18.4383 188.243C18.5264 188.248 18.6239 188.218 18.712 188.223C21.9221 188.184 25.1218 189.023 28.0831 190.702L41.3346 198.179L54.6209 205.663Z" fill="white"/>
<path fill-rule="evenodd" clip-rule="evenodd" d="M111.922 192.86L111.722 172.859C111.715 170.752 109.974 169.05 107.884 169.079C105.777 169.086 104.073 170.823 104.1 172.918L104.3 192.919C104.305 195.023 106.046 196.725 108.138 196.7C110.245 196.693 111.94 194.987 111.922 192.86ZM75.2541 217.849C73.4314 216.815 72.7905 214.495 73.8129 212.652C74.8469 210.829 77.1693 210.192 79.0098 211.211L92.2646 218.686L105.517 226.158C107.305 227.186 109.216 227.66 111.095 227.645C111.149 227.645 111.235 227.647 111.291 227.645C113.088 227.594 114.91 227.052 116.62 226.042C118.412 224.982 119.794 223.604 120.708 221.964C121.625 220.326 122.111 218.436 122.086 216.397L121.814 190.078L121.537 162.667C121.512 160.575 123.19 158.848 125.309 158.807C127.401 158.782 129.128 160.461 129.166 162.576L129.44 189.99L129.696 216.318C129.716 219.736 128.911 222.942 127.325 225.736C125.754 228.549 123.432 230.906 120.514 232.63C117.655 234.32 114.567 235.192 111.437 235.269C111.349 235.263 111.251 235.294 111.163 235.288C107.953 235.328 104.753 234.489 101.792 232.809L88.5404 225.332L75.2541 217.849Z" fill="white"/>
<path fill-rule="evenodd" clip-rule="evenodd" d="M112.91 -43.7336L112.71 -63.7347C112.703 -65.8417 110.962 -67.5434 108.872 -67.5152C106.765 -67.5081 105.061 -65.7708 105.088 -63.6754L105.288 -43.6744C105.293 -41.5706 107.034 -39.869 109.126 -39.8939C111.233 -39.901 112.929 -41.6068 112.91 -43.7336ZM76.2424 -18.7447C74.4197 -19.7788 73.7788 -22.0992 74.8012 -23.9416C75.8352 -25.7643 78.1576 -26.4019 79.9981 -25.3828L93.2529 -17.9077L106.506 -10.4359C108.294 -9.40798 110.204 -8.93364 112.084 -8.94878C112.137 -8.94909 112.223 -8.94654 112.28 -8.9488C114.076 -8.99935 115.898 -9.54162 117.608 -10.5522C119.4 -11.6116 120.782 -12.9893 121.696 -14.63C122.613 -16.2673 123.099 -18.158 123.074 -20.1968L122.802 -46.5155L122.525 -73.9271C122.5 -76.0192 124.179 -77.7461 126.297 -77.7867C128.389 -77.8116 130.116 -76.133 130.155 -74.0178L130.428 -46.6042L130.684 -20.2758C130.704 -16.858 129.9 -13.6522 128.313 -10.8573C126.742 -8.04454 124.42 -5.68791 121.502 -3.96326C118.643 -2.27374 115.555 -1.40184 112.425 -1.32464C112.337 -1.33049 112.239 -1.29957 112.151 -1.30542C108.941 -1.26557 105.741 -2.10491 102.78 -3.78442L89.5287 -11.2615L76.2424 -18.7447Z" fill="white"/>
<path fill-rule="evenodd" clip-rule="evenodd" d="M23.0663 112.117L5.74973 122.121C3.93218 123.187 1.58163 122.558 0.538645 120.741C-0.527345 118.923 0.105349 116.573 1.91907 115.534L19.2395 105.529C21.057 104.463 23.4076 105.092 24.4467 106.91C25.5127 108.727 24.9069 111.051 23.0663 112.117ZM25.9268 67.8593C24.1093 66.8202 21.7856 67.449 20.7196 69.2666C19.6766 71.0841 20.3055 73.4078 22.123 74.4738L35.3022 82.0815L48.4775 89.6853C50.2721 90.7014 51.6525 92.1087 52.5958 93.7307C52.6188 93.7805 52.6686 93.8534 52.6916 93.8994C53.5659 95.4753 54.026 97.3159 54.026 99.3022C54.026 101.384 53.516 103.275 52.5958 104.897C51.6525 106.523 50.2721 107.903 48.5005 108.919L25.7083 122.048L1.96891 135.761C0.151363 136.8 -0.477494 139.127 0.565491 140.968C1.60464 142.785 3.93218 143.414 5.77274 142.371L29.5121 128.663L52.3043 115.507C55.2607 113.789 57.6113 111.461 59.2103 108.678C60.8093 105.867 61.6797 102.696 61.6797 99.2792C61.6797 95.9585 60.8553 92.8602 59.3291 90.1224C59.2831 90.0495 59.2563 89.9537 59.2103 89.8808C57.6113 87.0931 55.2607 84.7694 52.3043 83.0746L39.129 75.467L25.9268 67.8593Z" fill="white"/>
<path fill-rule="evenodd" clip-rule="evenodd" d="M106.809 311.395L124.125 301.39C125.943 300.324 128.293 300.953 129.336 302.771C130.402 304.588 129.77 306.939 127.956 307.978L110.636 317.982C108.818 319.048 106.467 318.419 105.428 316.602C104.362 314.784 104.968 312.461 106.809 311.395ZM103.948 355.652C105.766 356.692 108.089 356.063 109.155 354.245C110.198 352.428 109.57 350.104 107.752 349.038L94.5728 341.43L81.3975 333.826C79.6029 332.81 78.2225 331.403 77.2792 329.781C77.2562 329.731 77.2064 329.658 77.1834 329.612C76.3091 328.036 75.849 326.196 75.849 324.21C75.849 322.127 76.359 320.237 77.2792 318.615C78.2225 316.989 79.6029 315.609 81.3745 314.593L104.167 301.463L127.906 287.751C129.724 286.712 130.352 284.384 129.31 282.544C128.27 280.726 125.943 280.097 124.102 281.14L100.363 294.849L77.5707 308.005C74.6143 309.723 72.2637 312.05 70.6647 314.834C69.0657 317.645 68.1953 320.816 68.1953 324.233C68.1953 327.553 69.0197 330.651 70.5459 333.389C70.5919 333.462 70.6187 333.558 70.6647 333.631C72.2637 336.419 74.6143 338.742 77.5707 340.437L90.746 348.045L103.948 355.652Z" fill="white"/>
<path fill-rule="evenodd" clip-rule="evenodd" d="M22.0702 348.711L4.75363 358.715C2.93608 359.781 0.585536 359.152 -0.457448 357.335C-1.52344 355.517 -0.890745 353.167 0.922972 352.127L18.2434 342.123C20.0609 341.057 22.4115 341.686 23.4506 343.504C24.5166 345.321 23.9108 347.645 22.0702 348.711ZM24.9307 304.453C23.1132 303.414 20.7895 304.043 19.7235 305.86C18.6805 307.678 19.3094 310.002 21.1269 311.068L34.3061 318.675L47.4814 326.279C49.276 327.295 50.6564 328.702 51.5997 330.324C51.6227 330.374 51.6725 330.447 51.6955 330.493C52.5698 332.069 53.0299 333.91 53.0299 335.896C53.0299 337.978 52.5199 339.868 51.5997 341.49C50.6564 343.116 49.276 344.497 47.5044 345.513L24.7122 358.642L0.97282 372.354C-0.844731 373.393 -1.47359 375.721 -0.430603 377.562C0.608543 379.379 2.93608 380.008 4.77664 378.965L28.516 365.257L51.3082 352.101C54.2646 350.383 56.6152 348.055 58.2142 345.271C59.8132 342.461 60.6836 339.289 60.6836 335.873C60.6836 332.552 59.8592 329.454 58.333 326.716C58.287 326.643 58.2602 326.547 58.2142 326.475C56.6152 323.687 54.2646 321.363 51.3082 319.668L38.1329 312.061L24.9307 304.453Z" fill="white"/>
<path fill-rule="evenodd" clip-rule="evenodd" d="M107.801 74.8009L125.117 64.7967C126.935 63.7307 129.286 64.3596 130.329 66.1771C131.395 67.9947 130.762 70.3452 128.948 71.3844L111.628 81.3886C109.81 82.4546 107.46 81.8257 106.42 80.0081C105.354 78.1906 105.96 75.8669 107.801 74.8009ZM104.94 119.059C106.758 120.098 109.082 119.469 110.148 117.651C111.191 115.834 110.562 113.51 108.744 112.444L95.565 104.837L82.3897 97.2327C80.5951 96.2166 79.2147 94.8093 78.2714 93.1873C78.2484 93.1375 78.1986 93.0646 78.1756 93.0186C77.3013 91.4426 76.8412 89.6021 76.8412 87.6158C76.8412 85.5337 77.3511 83.6433 78.2714 82.0213C79.2147 80.3954 80.5951 79.015 82.3667 77.9989L105.159 64.8695L128.898 51.1574C130.716 50.1182 131.345 47.7907 130.302 45.9501C129.263 44.1326 126.935 43.5037 125.094 44.5467L101.355 58.255L78.5628 71.4112C75.6065 73.1291 73.2559 75.4566 71.6569 78.2404C70.0579 81.0511 69.1875 84.2223 69.1875 87.6388C69.1875 90.9595 70.0119 94.0577 71.5381 96.7956C71.5841 96.8684 71.6109 96.9643 71.6569 97.0371C73.2559 99.8248 75.6065 102.149 78.5629 103.843L91.7382 111.451L104.94 119.059Z" fill="white"/>
</g>
<defs>
<clipPath id="clip0_1531_2950">
<rect width="615" height="410.371" fill="white" transform="translate(410.371 -77) rotate(90)"/>
</clipPath>
</defs>
</svg>
