<svg width="1027" height="1028" viewBox="0 0 1027 1028" fill="none" xmlns="http://www.w3.org/2000/svg">
<mask id="mask0_1_1965" style="mask-type:alpha" maskUnits="userSpaceOnUse" x="0" y="0" width="1027" height="1028">
<rect y="0.5" width="1027" height="1027" fill="url(#paint0_linear_1_1965)"/>
</mask>
<g mask="url(#mask0_1_1965)">
<rect y="5.58398" width="1027" height="1027" rx="513.5" fill="#047CFC" fill-opacity="0.07"/>
<rect x="0.63552" y="6.2195" width="1025.73" height="1025.73" rx="512.865" stroke="#047CFC" stroke-opacity="0.35" stroke-width="1.27104"/>
<rect x="-5.08594" y="513.998" width="10.1683" height="10.1683" rx="5.08416" fill="#047CFC" fill-opacity="0.04"/>
<rect x="-4.45042" y="514.634" width="8.89728" height="8.89728" rx="4.44864" stroke="#047CFC" stroke-opacity="0.35" stroke-width="1.27104"/>
<rect x="145.828" y="151.408" width="10.1683" height="10.1683" rx="5.08416" fill="#047CFC" fill-opacity="0.04"/>
<rect x="146.464" y="152.044" width="8.89728" height="8.89728" rx="4.44864" stroke="#047CFC" stroke-opacity="0.35" stroke-width="1.27104"/>
<rect x="145.828" y="876.588" width="10.1683" height="10.1683" rx="5.08416" fill="#047CFC" fill-opacity="0.04"/>
<rect x="146.464" y="877.223" width="8.89728" height="8.89728" rx="4.44864" stroke="#047CFC" stroke-opacity="0.35" stroke-width="1.27104"/>
<rect x="508.414" y="0.498047" width="10.1683" height="10.1683" rx="5.08416" fill="#047CFC" fill-opacity="0.04"/>
<rect x="509.05" y="1.13357" width="8.89728" height="8.89728" rx="4.44864" stroke="#047CFC" stroke-opacity="0.35" stroke-width="1.27104"/>
<rect x="508.414" y="1027.5" width="10.1683" height="10.1683" rx="5.08416" fill="#047CFC" fill-opacity="0.04"/>
<rect x="509.05" y="1028.13" width="8.89728" height="8.89728" rx="4.44864" stroke="#047CFC" stroke-opacity="0.35" stroke-width="1.27104"/>
<rect x="871.004" y="151.408" width="10.1683" height="10.1683" rx="5.08416" fill="#047CFC" fill-opacity="0.04"/>
<rect x="871.639" y="152.044" width="8.89728" height="8.89728" rx="4.44864" stroke="#047CFC" stroke-opacity="0.35" stroke-width="1.27104"/>
<rect x="871.004" y="876.588" width="10.1683" height="10.1683" rx="5.08416" fill="#047CFC" fill-opacity="0.04"/>
<rect x="871.639" y="877.223" width="8.89728" height="8.89728" rx="4.44864" stroke="#047CFC" stroke-opacity="0.35" stroke-width="1.27104"/>
<rect x="1021.91" y="513.998" width="10.1683" height="10.1683" rx="5.08416" fill="#047CFC" fill-opacity="0.04"/>
<rect x="1022.55" y="514.634" width="8.89728" height="8.89728" rx="4.44864" stroke="#047CFC" stroke-opacity="0.35" stroke-width="1.27104"/>
</g>
<mask id="mask1_1_1965" style="mask-type:alpha" maskUnits="userSpaceOnUse" x="127" y="127" width="773" height="774">
<rect x="127.105" y="127.605" width="772.792" height="772.792" fill="url(#paint1_linear_1_1965)"/>
</mask>
<g mask="url(#mask1_1_1965)">
<g opacity="0.6">
<rect x="127.105" y="132.689" width="772.792" height="772.792" rx="386.396" fill="#047CFC" fill-opacity="0.07"/>
<rect x="127.741" y="133.325" width="771.521" height="771.521" rx="385.76" stroke="#047CFC" stroke-opacity="0.35" stroke-width="1.27104"/>
<rect x="122.02" y="514.002" width="10.1683" height="10.1683" rx="5.08416" fill="#047CFC" fill-opacity="0.04"/>
<rect x="122.655" y="514.637" width="8.89728" height="8.89728" rx="4.44864" stroke="#047CFC" stroke-opacity="0.35" stroke-width="1.27104"/>
<rect x="236.055" y="241.643" width="10.1683" height="10.1683" rx="5.08416" fill="#047CFC" fill-opacity="0.04"/>
<rect x="236.69" y="242.278" width="8.89728" height="8.89728" rx="4.44864" stroke="#047CFC" stroke-opacity="0.35" stroke-width="1.27104"/>
<rect x="236.055" y="786.361" width="10.1683" height="10.1683" rx="5.08416" fill="#047CFC" fill-opacity="0.04"/>
<rect x="236.69" y="786.997" width="8.89728" height="8.89728" rx="4.44864" stroke="#047CFC" stroke-opacity="0.35" stroke-width="1.27104"/>
<rect x="508.414" y="127.607" width="10.1683" height="10.1683" rx="5.08416" fill="#047CFC" fill-opacity="0.04"/>
<rect x="509.05" y="128.243" width="8.89728" height="8.89728" rx="4.44864" stroke="#047CFC" stroke-opacity="0.35" stroke-width="1.27104"/>
<rect x="508.414" y="900.396" width="10.1683" height="10.1683" rx="5.08416" fill="#047CFC" fill-opacity="0.04"/>
<rect x="509.05" y="901.032" width="8.89728" height="8.89728" rx="4.44864" stroke="#047CFC" stroke-opacity="0.35" stroke-width="1.27104"/>
<rect x="780.777" y="241.643" width="10.1683" height="10.1683" rx="5.08416" fill="#047CFC" fill-opacity="0.04"/>
<rect x="781.413" y="242.278" width="8.89728" height="8.89728" rx="4.44864" stroke="#047CFC" stroke-opacity="0.35" stroke-width="1.27104"/>
<rect x="780.777" y="786.361" width="10.1683" height="10.1683" rx="5.08416" fill="#047CFC" fill-opacity="0.04"/>
<rect x="781.413" y="786.997" width="8.89728" height="8.89728" rx="4.44864" stroke="#047CFC" stroke-opacity="0.35" stroke-width="1.27104"/>
<rect x="894.812" y="514.002" width="10.1683" height="10.1683" rx="5.08416" fill="#047CFC" fill-opacity="0.04"/>
<rect x="895.448" y="514.637" width="8.89728" height="8.89728" rx="4.44864" stroke="#047CFC" stroke-opacity="0.35" stroke-width="1.27104"/>
</g>
</g>
<mask id="mask2_1_1965" style="mask-type:alpha" maskUnits="userSpaceOnUse" x="221" y="249" width="529" height="530">
<rect x="221.16" y="249.625" width="528.753" height="528.753" fill="url(#paint2_linear_1_1965)"/>
</mask>
<g mask="url(#mask2_1_1965)">
<rect x="221.16" y="254.709" width="528.753" height="528.753" rx="264.376" fill="#047CFC" fill-opacity="0.07"/>
<rect x="221.796" y="255.345" width="527.481" height="527.481" rx="263.741" stroke="#047CFC" stroke-opacity="0.35" stroke-width="1.27104"/>
<rect x="216.078" y="514.002" width="10.1683" height="10.1683" rx="5.08416" fill="#047CFC" fill-opacity="0.04"/>
<rect x="216.714" y="514.637" width="8.89728" height="8.89728" rx="4.44864" stroke="#047CFC" stroke-opacity="0.35" stroke-width="1.27104"/>
<rect x="294.133" y="327.682" width="10.1683" height="10.1683" rx="5.08416" fill="#047CFC" fill-opacity="0.04"/>
<rect x="294.768" y="328.317" width="8.89728" height="8.89728" rx="4.44864" stroke="#047CFC" stroke-opacity="0.35" stroke-width="1.27104"/>
<rect x="294.133" y="700.322" width="10.1683" height="10.1683" rx="5.08416" fill="#047CFC" fill-opacity="0.04"/>
<rect x="294.768" y="700.958" width="8.89728" height="8.89728" rx="4.44864" stroke="#047CFC" stroke-opacity="0.35" stroke-width="1.27104"/>
<rect x="480.453" y="249.627" width="10.1683" height="10.1683" rx="5.08416" fill="#047CFC" fill-opacity="0.04"/>
<rect x="481.089" y="250.262" width="8.89728" height="8.89728" rx="4.44864" stroke="#047CFC" stroke-opacity="0.35" stroke-width="1.27104"/>
<rect x="480.453" y="778.377" width="10.1683" height="10.1683" rx="5.08416" fill="#047CFC" fill-opacity="0.04"/>
<rect x="481.089" y="779.012" width="8.89728" height="8.89728" rx="4.44864" stroke="#047CFC" stroke-opacity="0.35" stroke-width="1.27104"/>
<rect x="666.773" y="327.682" width="10.1683" height="10.1683" rx="5.08416" fill="#047CFC" fill-opacity="0.04"/>
<rect x="667.409" y="328.317" width="8.89728" height="8.89728" rx="4.44864" stroke="#047CFC" stroke-opacity="0.35" stroke-width="1.27104"/>
<rect x="666.773" y="700.322" width="10.1683" height="10.1683" rx="5.08416" fill="#047CFC" fill-opacity="0.04"/>
<rect x="667.409" y="700.958" width="8.89728" height="8.89728" rx="4.44864" stroke="#047CFC" stroke-opacity="0.35" stroke-width="1.27104"/>
<rect x="744.828" y="514.002" width="10.1683" height="10.1683" rx="5.08416" fill="#047CFC" fill-opacity="0.04"/>
<rect x="745.464" y="514.637" width="8.89728" height="8.89728" rx="4.44864" stroke="#047CFC" stroke-opacity="0.35" stroke-width="1.27104"/>
</g>
<defs>
<linearGradient id="paint0_linear_1_1965" x1="513.5" y1="0.5" x2="513.5" y2="1027.5" gradientUnits="userSpaceOnUse">
<stop offset="0.0941" stop-color="#BA9CFF" stop-opacity="0.6"/>
<stop offset="0.2979" stop-color="#BA9CFF" stop-opacity="0"/>
</linearGradient>
<linearGradient id="paint1_linear_1_1965" x1="513.501" y1="127.605" x2="513.501" y2="900.398" gradientUnits="userSpaceOnUse">
<stop offset="0.0941" stop-color="#BA9CFF" stop-opacity="0.6"/>
<stop offset="0.2979" stop-color="#BA9CFF" stop-opacity="0"/>
</linearGradient>
<linearGradient id="paint2_linear_1_1965" x1="485.536" y1="249.625" x2="485.536" y2="778.378" gradientUnits="userSpaceOnUse">
<stop offset="0.0941" stop-color="#BA9CFF" stop-opacity="0.6"/>
<stop offset="0.2979" stop-color="#BA9CFF" stop-opacity="0"/>
</linearGradient>
</defs>
</svg>
