<svg width="58" height="58" viewBox="0 0 58 58" fill="none" xmlns="http://www.w3.org/2000/svg">
<path d="M31.8174 35.8492L31.6509 35.6827H31.4154H26.582H26.3465L26.1799 35.8492L21.5132 40.516H16.9154C15.7843 40.516 14.6995 40.0667 13.8998 39.2669C13.1 38.4671 12.6507 37.3824 12.6507 36.2513V21.7513C12.6507 20.6202 13.1 19.5355 13.8998 18.7357C14.6995 17.9359 15.7843 17.4866 16.9154 17.4866H41.082C42.2131 17.4866 43.2978 17.9359 44.0976 18.7357C44.8974 19.5355 45.3467 20.6202 45.3467 21.7513V36.2513C45.3467 37.3824 44.8974 38.4671 44.0976 39.2669C43.2978 40.0667 42.2131 40.516 41.082 40.516H36.4842L31.8174 35.8492ZM52.5967 33.8346C52.5967 34.3248 52.402 34.7948 52.0555 35.1414C51.7089 35.488 51.2388 35.6827 50.7487 35.6827C50.2586 35.6827 49.7885 35.488 49.4419 35.1414C49.0954 34.7948 48.9007 34.3248 48.9007 33.8346V24.168C48.9007 23.6778 49.0954 23.2078 49.4419 22.8612C49.7885 22.5146 50.2586 22.3199 50.7487 22.3199C51.2388 22.3199 51.7089 22.5146 52.0555 22.8612C52.402 23.2078 52.5967 23.6778 52.5967 24.168V33.8346ZM9.09674 33.8346C9.09674 34.3248 8.90203 34.7948 8.55546 35.1414C8.20888 35.488 7.73883 35.6827 7.2487 35.6827C6.75857 35.6827 6.28851 35.488 5.94194 35.1414C5.59536 34.7948 5.40066 34.3248 5.40066 33.8346V24.168C5.40066 23.6778 5.59536 23.2078 5.94194 22.8612C6.28851 22.5146 6.75857 22.3199 7.2487 22.3199C7.73883 22.3199 8.20888 22.5146 8.55546 22.8612C8.90203 23.2078 9.09674 23.6778 9.09674 24.168V33.8346Z" fill="url(#paint0_linear_1_3027)" fill-opacity="0.25" stroke="white" stroke-width="1.13725"/>
<defs>
<linearGradient id="paint0_linear_1_3027" x1="28.9987" y1="16.918" x2="28.9987" y2="41.0846" gradientUnits="userSpaceOnUse">
<stop stop-color="white"/>
<stop offset="1" stop-color="white"/>
</linearGradient>
</defs>
</svg>
