<svg width="233" height="125" viewBox="0 0 233 125" fill="none" xmlns="http://www.w3.org/2000/svg">
<path fill-rule="evenodd" clip-rule="evenodd" d="M61.9961 78.2779L41.8308 113.19C39.6821 116.854 40.9574 121.592 44.6133 123.687C48.2769 125.835 53.0148 124.568 55.1171 120.904L75.2825 85.9916C77.4312 82.3357 76.1559 77.5977 72.5 75.4954C68.8364 73.3467 64.1448 74.5679 61.9961 78.2779ZM151.252 72.5197C153.354 76.1833 152.087 80.8672 148.423 83.0159C144.76 85.1182 140.076 83.8429 137.927 80.187L122.593 53.622L107.258 27.0646C105.21 23.4474 102.381 20.6649 99.1037 18.7635C99.0109 18.7094 98.8641 18.6167 98.7636 18.5626C95.5947 16.8081 91.8769 15.8806 87.8732 15.8806C83.6763 15.8806 79.8659 16.8544 76.5964 18.7635C73.327 20.6649 70.5445 23.4474 68.4963 27.0105L41.9776 72.9603L14.3459 120.811C12.2436 124.467 7.55977 125.743 3.84206 123.64C0.186173 121.538 -1.08913 116.854 1.0132 113.144L28.6526 65.293L55.2099 19.3432C58.6803 13.3918 63.3642 8.65383 68.9832 5.43079C74.5946 2.16136 81.0407 0.453226 87.8732 0.453226C94.5667 0.453227 100.82 2.10726 106.33 5.18345C106.477 5.28393 106.678 5.33031 106.825 5.43079C112.436 8.65384 117.128 13.3918 120.544 19.3432L135.871 45.9083L151.252 72.5197Z" fill="#17234D"/>
<path fill-rule="evenodd" clip-rule="evenodd" d="M170.447 46.8844L190.612 11.9796C192.761 8.316 191.493 3.57804 187.83 1.47571C184.166 -0.672985 179.428 0.602321 177.334 4.2582L157.168 39.1707C155.02 42.8343 156.287 47.5723 159.951 49.6669C163.614 51.8156 168.298 50.5944 170.447 46.8844ZM81.2373 52.6503C79.1427 48.9867 80.4103 44.3029 84.0739 42.1541C87.7375 40.0518 92.4214 41.3194 94.5701 44.983L109.905 71.5481L125.232 98.1054C127.28 101.723 130.116 104.505 133.386 106.406C133.486 106.453 133.633 106.553 133.726 106.6C136.903 108.362 140.613 109.289 144.616 109.289C148.813 109.289 152.624 108.261 155.893 106.406C159.17 104.505 161.953 101.723 164.001 98.1517L190.465 52.2098L218.105 4.35869C220.199 0.695075 224.891 -0.572503 228.601 1.52982C232.265 3.62442 233.532 8.316 231.43 12.026L203.798 59.8771L177.28 105.819C173.817 111.778 169.125 116.516 163.514 119.739C157.849 122.962 151.457 124.717 144.57 124.717C137.876 124.717 131.631 123.055 126.113 119.979C125.966 119.886 125.773 119.832 125.626 119.739C120.007 116.516 115.323 111.778 111.907 105.819L96.5719 79.2617L81.2373 52.6503Z" fill="#027FFF"/>
</svg>
