<svg width="44" height="43" viewBox="0 0 44 43" fill="none" xmlns="http://www.w3.org/2000/svg">
<path d="M22.1138 35.3253C29.7123 35.3253 35.8721 29.1654 35.8721 21.5669C35.8721 13.9684 29.7123 7.80859 22.1138 7.80859C14.5153 7.80859 8.35547 13.9684 8.35547 21.5669C8.35547 29.1654 14.5153 35.3253 22.1138 35.3253Z" fill="url(#paint0_linear_1_3011)" fill-opacity="0.24" stroke="white" stroke-width="1.05833" stroke-linecap="round" stroke-linejoin="round"/>
<path opacity="0.4" d="M22.1167 19.4492C22.678 19.4492 23.2164 19.6722 23.6134 20.0692C24.0103 20.4662 24.2333 21.0045 24.2333 21.5659C24.2333 22.1272 24.0103 22.6656 23.6134 23.0626C23.2164 23.4596 22.678 23.6826 22.1167 23.6826C21.5553 23.6826 21.017 23.4596 20.62 23.0626C20.223 22.6656 20 22.1272 20 21.5659C20 21.0045 20.223 20.4662 20.62 20.0692C21.017 19.6722 21.5553 19.4492 22.1167 19.4492Z" fill="#030014" stroke="white" stroke-width="1.05833" stroke-linecap="round" stroke-linejoin="round"/>
<path d="M22.1172 5.69141C22.6785 5.69141 23.2169 5.91441 23.6139 6.31137C24.0109 6.70832 24.2339 7.2467 24.2339 7.80807C24.2339 8.36944 24.0109 8.90783 23.6139 9.30478C23.2169 9.70174 22.6785 9.92474 22.1172 9.92474C21.5558 9.92474 21.0175 9.70174 20.6205 9.30478C20.2235 8.90783 20.0005 8.36944 20.0005 7.80807C20.0005 7.2467 20.2235 6.70832 20.6205 6.31137C21.0175 5.91441 21.5558 5.69141 22.1172 5.69141ZM22.1172 33.2081C22.6785 33.2081 23.2169 33.4311 23.6139 33.828C24.0109 34.225 24.2339 34.7634 24.2339 35.3247C24.2339 35.8861 24.0109 36.4245 23.6139 36.8214C23.2169 37.2184 22.6785 37.4414 22.1172 37.4414C21.5558 37.4414 21.0175 37.2184 20.6205 36.8214C20.2235 36.4245 20.0005 35.8861 20.0005 35.3247C20.0005 34.7634 20.2235 34.225 20.6205 33.828C21.0175 33.4311 21.5558 33.2081 22.1172 33.2081ZM35.8755 19.4497C36.4369 19.4497 36.9752 19.6727 37.3722 20.0697C37.7692 20.4667 37.9922 21.0051 37.9922 21.5664C37.9922 22.1277 37.7692 22.6661 37.3722 23.0631C36.9752 23.4601 36.4369 23.6831 35.8755 23.6831C35.3142 23.6831 34.7758 23.4601 34.3788 23.0631C33.9818 22.6661 33.7589 22.1277 33.7589 21.5664C33.7589 21.0051 33.9818 20.4667 34.3788 20.0697C34.7758 19.6727 35.3142 19.4497 35.8755 19.4497ZM8.35885 19.4497C8.92023 19.4497 9.45861 19.6727 9.85556 20.0697C10.2525 20.4667 10.4755 21.0051 10.4755 21.5664C10.4755 22.1277 10.2525 22.6661 9.85556 23.0631C9.45861 23.4601 8.92023 23.6831 8.35885 23.6831C7.79748 23.6831 7.2591 23.4601 6.86215 23.0631C6.46519 22.6661 6.24219 22.1277 6.24219 21.5664C6.24219 21.0051 6.46519 20.4667 6.86215 20.0697C7.2591 19.6727 7.79748 19.4497 8.35885 19.4497Z" fill="#030014" stroke="white" stroke-width="1.05833" stroke-linecap="round" stroke-linejoin="round"/>
<defs>
<linearGradient id="paint0_linear_1_3011" x1="22.1138" y1="7.80859" x2="22.1138" y2="35.3253" gradientUnits="userSpaceOnUse">
<stop stop-color="white" stop-opacity="0"/>
<stop offset="1" stop-color="white"/>
</linearGradient>
</defs>
</svg>
