<svg width="43" height="43" viewBox="0 0 43 43" fill="none" xmlns="http://www.w3.org/2000/svg">
<path d="M29.0224 24.7414C31.9074 24.1424 34.3141 21.4542 34.3141 18.3914C34.3141 16.7073 33.6451 15.0922 32.4541 13.9013C31.2633 12.7104 29.6482 12.0414 27.9641 12.0414C27.9641 10.3573 27.2951 8.74214 26.1041 7.55128C24.9133 6.36042 23.2982 5.69141 21.6141 5.69141C19.9299 5.69141 18.3148 6.36042 17.124 7.55128C15.933 8.74214 15.2641 10.3573 15.2641 12.0414C13.5799 12.0414 11.9648 12.7104 10.7739 13.9013C9.58308 15.0922 8.91406 16.7073 8.91406 18.3914C8.91406 21.4394 11.3398 24.1276 14.2057 24.7414" fill="url(#paint0_linear_1_2971)" fill-opacity="0.24"/>
<path d="M29.0224 24.7414C31.9074 24.1424 34.3141 21.4542 34.3141 18.3914C34.3141 16.7073 33.6451 15.0922 32.4541 13.9013C31.2633 12.7104 29.6482 12.0414 27.9641 12.0414C27.9641 10.3573 27.2951 8.74214 26.1041 7.55128C24.9133 6.36042 23.2982 5.69141 21.6141 5.69141C19.9299 5.69141 18.3148 6.36042 17.124 7.55128C15.933 8.74214 15.2641 10.3573 15.2641 12.0414C13.5799 12.0414 11.9648 12.7104 10.7739 13.9013C9.58308 15.0922 8.91406 16.7073 8.91406 18.3914C8.91406 21.4394 11.3398 24.1276 14.2057 24.7414" stroke="white" stroke-width="1.05833" stroke-linecap="round" stroke-linejoin="round"/>
<path opacity="0.32" d="M14.207 37.4406V34.2656H29.0237V37.4406H14.207Z" fill="white" stroke="white" stroke-width="1.05833" stroke-linecap="round" stroke-linejoin="round"/>
<path d="M21.6172 30.0326V19.4492" stroke="white" stroke-width="1.05833" stroke-linecap="round" stroke-linejoin="round"/>
<path d="M21.6164 18.3906L18.4414 22.624H24.7914L21.6164 18.3906Z" fill="white" stroke="white" stroke-width="1.05833" stroke-linecap="round" stroke-linejoin="round"/>
<defs>
<linearGradient id="paint0_linear_1_2971" x1="21.6141" y1="5.69141" x2="21.6141" y2="24.7414" gradientUnits="userSpaceOnUse">
<stop stop-color="white" stop-opacity="0"/>
<stop offset="1" stop-color="white"/>
</linearGradient>
</defs>
</svg>
