<svg width="162" height="41" viewBox="0 0 162 41" fill="none" xmlns="http://www.w3.org/2000/svg">
<path fill-rule="evenodd" clip-rule="evenodd" d="M20.185 25.3458L13.6195 36.7127C12.92 37.9055 13.3352 39.4481 14.5255 40.1301C15.7183 40.8296 17.2609 40.4169 17.9453 39.2241L24.5108 27.8572C25.2104 26.6669 24.7952 25.1243 23.6049 24.4399C22.4121 23.7403 20.8846 24.1379 20.185 25.3458ZM49.2452 23.471C49.9297 24.6638 49.517 26.1888 48.3242 26.8884C47.1314 27.5729 45.6064 27.1576 44.9068 25.9674L34.9215 8.67166C34.2546 7.49395 33.3336 6.58802 32.2666 5.96897C32.2364 5.95135 32.1886 5.92116 32.1559 5.90354C31.1241 5.3323 29.9137 5.03032 28.6102 5.03032C27.2437 5.03032 26.0031 5.3474 24.9386 5.96897C23.8742 6.58802 22.9682 7.49395 22.3014 8.65404L4.67097 39.1939C3.98649 40.3842 2.46151 40.7994 1.25108 40.1149C0.0607945 39.4305 -0.354423 37.9055 0.330057 36.6976L17.9755 6.1577C19.1054 4.22002 20.6304 2.67742 22.4599 1.62806C24.2869 0.563589 26.3856 0.00744993 28.6102 0.00745012C30.7894 0.00745031 32.8252 0.545975 34.6195 1.54753C34.6673 1.58024 34.7327 1.59534 34.7805 1.62806C36.6075 2.67743 38.135 4.22002 39.2473 6.1577L49.2452 23.471Z" fill="white"/>
<path fill-rule="evenodd" clip-rule="evenodd" d="M20.185 25.3458L13.6195 36.7127C12.92 37.9055 13.3352 39.4481 14.5255 40.1301C15.7183 40.8296 17.2609 40.4169 17.9453 39.2241L24.5108 27.8572C25.2104 26.6669 24.7952 25.1243 23.6049 24.4399C22.4121 23.7403 20.8846 24.1379 20.185 25.3458ZM49.2452 23.471C49.9297 24.6638 49.517 26.1888 48.3242 26.8884C47.1314 27.5729 45.6064 27.1576 44.9068 25.9674L34.9215 8.67166C34.2546 7.49395 33.3336 6.58802 32.2666 5.96897C32.2364 5.95135 32.1886 5.92116 32.1559 5.90354C31.1241 5.3323 29.9137 5.03032 28.6102 5.03032C27.2437 5.03032 26.0031 5.3474 24.9386 5.96897C23.8742 6.58802 22.9682 7.49395 22.3014 8.65404L4.67097 39.1939C3.98649 40.3842 2.46151 40.7994 1.25108 40.1149C0.0607945 39.4305 -0.354423 37.9055 0.330057 36.6976L17.9755 6.1577C19.1054 4.22002 20.6304 2.67742 22.4599 1.62806C24.2869 0.563589 26.3856 0.00744993 28.6102 0.00745012C30.7894 0.00745031 32.8252 0.545975 34.6195 1.54753C34.6673 1.58024 34.7327 1.59534 34.7805 1.62806C36.6075 2.67743 38.135 4.22002 39.2473 6.1577L49.2452 23.471Z" fill="url(#paint0_linear_1531_2418)"/>
<path fill-rule="evenodd" clip-rule="evenodd" d="M55.4946 15.1248L62.0601 3.76047C62.7597 2.56766 62.347 1.02507 61.1542 0.340588C59.9614 -0.358991 58.4188 0.0562267 57.7368 1.24652L51.1713 12.6134C50.4718 13.8062 50.8845 15.3488 52.0773 16.0308C53.2701 16.7304 54.7951 16.3328 55.4946 15.1248ZM26.4495 17.0021C25.7676 15.8093 26.1803 14.2843 27.3731 13.5848C28.5659 12.9003 30.0909 13.313 30.7904 14.5058L40.7733 31.8015C41.4401 32.9792 42.3637 33.8851 43.4282 34.5042C43.4609 34.5193 43.5087 34.552 43.5389 34.5671C44.5732 35.1408 45.7811 35.4428 47.0846 35.4428C48.451 35.4428 49.6917 35.1081 50.7561 34.5042C51.8231 33.8851 52.729 32.9792 53.3959 31.8166L62.0123 16.8587L71.0112 1.27923C71.6932 0.0864255 73.2206 -0.326275 74.4286 0.358205C75.6214 1.04017 76.0341 2.56767 75.3496 3.77557L57.7192 34.3129C56.5918 36.2531 55.0643 37.7957 53.2374 38.8451C51.3928 39.8945 49.3117 40.4657 47.0695 40.4657C44.8902 40.4657 42.8569 39.9247 41.0602 38.9231C41.0123 38.8929 40.9494 38.8753 40.9016 38.8451C39.0721 37.7957 37.5472 36.2531 36.4349 34.3129L26.4495 17.0021Z" fill="white"/>
<path fill-rule="evenodd" clip-rule="evenodd" d="M55.4946 15.1248L62.0601 3.76047C62.7597 2.56766 62.347 1.02507 61.1542 0.340588C59.9614 -0.358991 58.4188 0.0562267 57.7368 1.24652L51.1713 12.6134C50.4718 13.8062 50.8845 15.3488 52.0773 16.0308C53.2701 16.7304 54.7951 16.3328 55.4946 15.1248ZM26.4495 17.0021C25.7676 15.8093 26.1803 14.2843 27.3731 13.5848C28.5659 12.9003 30.0909 13.313 30.7904 14.5058L40.7733 31.8015C41.4401 32.9792 42.3637 33.8851 43.4282 34.5042C43.4609 34.5193 43.5087 34.552 43.5389 34.5671C44.5732 35.1408 45.7811 35.4428 47.0846 35.4428C48.451 35.4428 49.6917 35.1081 50.7561 34.5042C51.8231 33.8851 52.729 32.9792 53.3959 31.8166L62.0123 16.8587L71.0112 1.27923C71.6932 0.0864255 73.2206 -0.326275 74.4286 0.358205C75.6214 1.04017 76.0341 2.56767 75.3496 3.77557L57.7192 34.3129C56.5918 36.2531 55.0643 37.7957 53.2374 38.8451C51.3928 39.8945 49.3117 40.4657 47.0695 40.4657C44.8902 40.4657 42.8569 39.9247 41.0602 38.9231C41.0123 38.8929 40.9494 38.8753 40.9016 38.8451C39.0721 37.7957 37.5472 36.2531 36.4349 34.3129L26.4495 17.0021Z" fill="url(#paint1_linear_1531_2418)"/>
<path d="M87.2364 22.3262H84.9817C84.7803 22.3262 84.6797 22.2306 84.6797 22.0343V11.4953C84.6797 11.2412 84.7451 11.0801 84.881 11.0122C85.0219 10.9392 85.1956 10.992 85.4044 11.1732L91.6151 16.639V11.5356C91.6151 11.3418 91.7107 11.2437 91.907 11.2437H94.1617C94.3631 11.2437 94.4637 11.3418 94.4637 11.5356V22.0544C94.4637 22.3111 94.3857 22.4696 94.2322 22.5376C94.0837 22.6106 93.895 22.5401 93.6685 22.3262L87.5384 16.7396V22.0343C87.5384 22.2306 87.4377 22.3262 87.2364 22.3262Z" fill="white"/>
<path d="M105.193 22.3325H98.288C98.0917 22.3325 97.9961 22.2369 97.9961 22.0406V11.5419C97.9961 11.3481 98.0917 11.25 98.288 11.25H105.193C105.387 11.25 105.485 11.3481 105.485 11.5419V13.4645C105.485 13.6608 105.387 13.7564 105.193 13.7564H100.945V16.1521H104.609C104.811 16.1521 104.911 16.2527 104.911 16.4541V18.2257C104.911 18.427 104.811 18.5276 104.609 18.5276H100.945V19.8261H105.193C105.387 19.8261 105.485 19.9243 105.485 20.118V22.0406C105.485 22.2369 105.387 22.3325 105.193 22.3325Z" fill="white"/>
<path d="M113.65 22.6244C113.119 22.6244 112.605 22.5766 112.109 22.4835C111.619 22.3879 111.163 22.2419 110.74 22.0406C110.318 21.8343 109.948 21.5726 109.633 21.2555C109.324 20.9334 109.08 20.5559 108.898 20.118C108.722 19.6751 108.637 19.1693 108.637 18.5981V11.5419C108.637 11.3481 108.737 11.25 108.939 11.25H111.375C111.568 11.25 111.667 11.3481 111.667 11.5419V17.813C111.667 18.5729 111.833 19.1215 112.17 19.4638C112.512 19.801 113.005 19.9671 113.65 19.9671C114.299 19.9671 114.792 19.801 115.129 19.4638C115.464 19.1215 115.633 18.5729 115.633 17.813V11.5419C115.633 11.3481 115.728 11.25 115.924 11.25H118.36C118.562 11.25 118.662 11.3481 118.662 11.5419V18.5981C118.662 19.3178 118.526 19.9318 118.26 20.4401C117.998 20.9434 117.636 21.3612 117.173 21.6883C116.71 22.0104 116.176 22.247 115.572 22.3929C114.968 22.5464 114.326 22.6244 113.65 22.6244Z" fill="white"/>
<path d="M129.249 18.1653L131.312 21.9802C131.365 22.0884 131.373 22.1765 131.333 22.2419C131.292 22.3023 131.217 22.3325 131.111 22.3325H128.413C128.257 22.3325 128.147 22.2596 128.081 22.1111L126.3 18.5478H125.051V22.0406C125.051 22.2369 124.951 22.3325 124.749 22.3325H122.374C122.178 22.3325 122.082 22.2369 122.082 22.0406V11.5419C122.082 11.3481 122.178 11.25 122.374 11.25H126.984C127.608 11.25 128.144 11.3154 128.595 11.4413C129.05 11.562 129.43 11.7332 129.732 11.9546C130.034 12.1761 130.276 12.4378 130.457 12.7398C130.638 13.0417 130.764 13.3689 130.839 13.7161C130.92 14.0659 130.96 14.4308 130.96 14.8133C130.96 15.6136 130.809 16.3006 130.507 16.8768C130.21 17.4556 129.792 17.8834 129.249 18.1653ZM126.471 13.7564H125.051V16.0414H126.471C126.551 16.0414 126.654 16.0388 126.783 16.0313C126.909 16.0263 127.045 16.0061 127.185 15.9709C127.326 15.9306 127.457 15.8702 127.578 15.7897C127.704 15.7042 127.804 15.5859 127.88 15.4374C127.961 15.2839 128.001 15.0851 128.001 14.8435C128.001 14.5768 127.95 14.3679 127.85 14.2194C127.749 14.0659 127.618 13.9577 127.457 13.8973C127.296 13.8319 127.128 13.7916 126.954 13.7765C126.778 13.764 126.617 13.7564 126.471 13.7564Z" fill="white"/>
<path d="M137.04 22.3325H134.675C134.478 22.3325 134.383 22.2369 134.383 22.0406V11.5419C134.383 11.3481 134.478 11.25 134.675 11.25H137.04C137.234 11.25 137.332 11.3481 137.332 11.5419V22.0406C137.332 22.2369 137.234 22.3325 137.04 22.3325Z" fill="white"/>
<path d="M143.509 22.3325H141.143C140.947 22.3325 140.852 22.2369 140.852 22.0406V11.5419C140.852 11.3481 140.947 11.25 141.143 11.25H148.049C148.242 11.25 148.341 11.3481 148.341 11.5419V13.4645C148.341 13.6608 148.242 13.7564 148.049 13.7564H143.801V16.1521H147.364C147.566 16.1521 147.666 16.2527 147.666 16.4541V18.2257C147.666 18.427 147.566 18.5276 147.364 18.5276H143.801V22.0406C143.801 22.2369 143.703 22.3325 143.509 22.3325Z" fill="white"/>
<path d="M157.317 22.3325H154.952C154.755 22.3325 154.66 22.2369 154.66 22.0406V18.0948L150.412 11.6023C150.344 11.5092 150.326 11.4287 150.361 11.3607C150.402 11.2877 150.477 11.25 150.593 11.25H153.472C153.633 11.25 153.749 11.3205 153.824 11.4614L156.149 15.4374L158.515 11.4614C158.588 11.3205 158.709 11.25 158.877 11.25H161.736C161.857 11.25 161.937 11.2877 161.977 11.3607C162.018 11.4287 162.003 11.5092 161.937 11.6023L157.619 18.0948V22.0406C157.619 22.2369 157.518 22.3325 157.317 22.3325Z" fill="white"/>
<path d="M88.1527 27.4579H86.8643V30.7998H86.0892V27.4579H84.8008V26.7734H88.1527V27.4579Z" fill="white"/>
<path d="M92.4624 30.1153V30.7998H89.6641V26.7734H92.412V27.4579H90.4492V28.4242H92.1403V29.0584H90.4492V30.1153H92.4624Z" fill="white"/>
<path d="M93.8359 28.7476C93.8359 28.5009 93.8787 28.2594 93.9668 28.0228C94.0599 27.7812 94.1908 27.5673 94.3594 27.3786C94.533 27.1848 94.7419 27.0313 94.9834 26.9156C95.2301 26.7948 95.5119 26.7344 95.829 26.7344C96.1964 26.7344 96.516 26.8199 96.7852 26.986C97.0595 27.1471 97.2634 27.3585 97.3993 27.6202L96.7953 28.0329C96.7399 27.9196 96.6745 27.8265 96.594 27.751C96.5185 27.6705 96.438 27.6076 96.3524 27.5598C96.2643 27.5145 96.1737 27.4793 96.0806 27.4591C95.985 27.439 95.8944 27.4289 95.8088 27.4289C95.6075 27.4289 95.4314 27.4692 95.2854 27.5497C95.1445 27.6302 95.0237 27.7359 94.9231 27.8618C94.8274 27.9901 94.7544 28.1335 94.7016 28.2946C94.6538 28.4556 94.6311 28.6142 94.6311 28.7677C94.6311 28.9489 94.6563 29.125 94.7117 29.2911C94.7721 29.4522 94.8526 29.5981 94.9533 29.7239C95.0589 29.8447 95.1873 29.9454 95.3358 30.0259C95.4817 30.1014 95.6428 30.1366 95.8189 30.1366C95.9045 30.1366 96.0001 30.1266 96.1008 30.1064C96.2014 30.0813 96.2945 30.0435 96.3826 29.9957C96.4682 29.9429 96.5487 29.88 96.6242 29.8045C96.7047 29.7239 96.7651 29.6308 96.8054 29.5226L97.4496 29.885C97.3892 30.041 97.2986 30.1744 97.1778 30.2876C97.057 30.4034 96.9211 30.499 96.7752 30.5795C96.6267 30.6601 96.4656 30.7205 96.292 30.7607C96.1234 30.801 95.9548 30.8211 95.7887 30.8211C95.5069 30.8211 95.2452 30.7607 95.0036 30.6399C94.767 30.5191 94.5632 30.3631 94.3896 30.1668C94.2134 29.9731 94.0775 29.7516 93.9769 29.5025C93.8812 29.2559 93.8359 29.0042 93.8359 28.7476Z" fill="white"/>
<path d="M102.347 26.7734V30.7998H101.572V29.0785H99.75V30.7998H98.9648V26.7734H99.75V28.394H101.572V26.7734H102.347Z" fill="white"/>
<path d="M104.984 28.2129V30.7998H104.199V26.7734H104.803L106.907 29.4107V26.7734H107.692V30.7998H107.048L104.984 28.2129Z" fill="white"/>
<path d="M111.254 30.8211C110.957 30.8211 110.69 30.7658 110.449 30.65C110.207 30.5292 109.998 30.3757 109.825 30.187C109.656 29.9932 109.523 29.7743 109.422 29.5327C109.327 29.2861 109.281 29.0344 109.281 28.7777C109.281 28.511 109.332 28.2518 109.432 28.0027C109.533 27.7561 109.669 27.5371 109.845 27.3484C110.026 27.1622 110.238 27.0137 110.479 26.9055C110.721 26.7923 110.982 26.7344 111.264 26.7344C111.559 26.7344 111.823 26.7948 112.059 26.9156C112.301 27.0313 112.505 27.1848 112.673 27.3786C112.847 27.5749 112.98 27.7963 113.076 28.0429C113.169 28.2845 113.217 28.5337 113.217 28.7878C113.217 29.0571 113.167 29.3163 113.066 29.5629C112.97 29.8045 112.837 30.0209 112.663 30.2071C112.487 30.3958 112.281 30.5468 112.039 30.6601C111.798 30.7683 111.536 30.8211 111.254 30.8211ZM110.076 28.7777C110.076 28.9539 110.102 29.12 110.157 29.281C110.21 29.4421 110.288 29.5881 110.388 29.7139C110.489 29.8347 110.612 29.9353 110.761 30.0159C110.907 30.0913 111.073 30.1266 111.254 30.1266C111.44 30.1266 111.609 30.0913 111.757 30.0159C111.903 29.9353 112.029 29.8322 112.13 29.7038C112.231 29.578 112.304 29.432 112.351 29.271C112.404 29.1099 112.432 28.9464 112.432 28.7777C112.432 28.6041 112.404 28.4355 112.351 28.2745C112.296 28.1084 112.22 27.9624 112.12 27.8416C112.019 27.7158 111.893 27.6151 111.747 27.5396C111.599 27.4667 111.435 27.4289 111.254 27.4289C111.065 27.4289 110.897 27.4692 110.751 27.5497C110.602 27.6252 110.479 27.7259 110.378 27.8517C110.283 27.98 110.21 28.1235 110.157 28.2845C110.102 28.4456 110.076 28.6117 110.076 28.7777Z" fill="white"/>
<path d="M114.824 30.7998V26.7734H115.609V30.1153H117.663V30.7998H114.824Z" fill="white"/>
<path d="M120.86 30.8211C120.563 30.8211 120.296 30.7658 120.054 30.65C119.813 30.5292 119.604 30.3757 119.43 30.187C119.262 29.9932 119.128 29.7743 119.028 29.5327C118.932 29.2861 118.887 29.0344 118.887 28.7777C118.887 28.511 118.937 28.2518 119.038 28.0027C119.138 27.7561 119.274 27.5371 119.45 27.3484C119.632 27.1622 119.843 27.0137 120.085 26.9055C120.326 26.7923 120.588 26.7344 120.87 26.7344C121.164 26.7344 121.428 26.7948 121.665 26.9156C121.906 27.0313 122.11 27.1848 122.279 27.3786C122.453 27.5749 122.586 27.7963 122.682 28.0429C122.775 28.2845 122.822 28.5337 122.822 28.7878C122.822 29.0571 122.772 29.3163 122.671 29.5629C122.576 29.8045 122.442 30.0209 122.269 30.2071C122.093 30.3958 121.886 30.5468 121.645 30.6601C121.403 30.7683 121.141 30.8211 120.86 30.8211ZM119.682 28.7777C119.682 28.9539 119.707 29.12 119.762 29.281C119.815 29.4421 119.893 29.5881 119.994 29.7139C120.095 29.8347 120.218 29.9353 120.366 30.0159C120.512 30.0913 120.678 30.1266 120.86 30.1266C121.046 30.1266 121.214 30.0913 121.363 30.0159C121.509 29.9353 121.635 29.8322 121.735 29.7038C121.836 29.578 121.909 29.432 121.957 29.271C122.01 29.1099 122.037 28.9464 122.037 28.7777C122.037 28.6041 122.01 28.4355 121.957 28.2745C121.901 28.1084 121.826 27.9624 121.725 27.8416C121.625 27.7158 121.499 27.6151 121.353 27.5396C121.204 27.4667 121.041 27.4289 120.86 27.4289C120.671 27.4289 120.502 27.4692 120.356 27.5497C120.208 27.6252 120.085 27.7259 119.984 27.8517C119.888 27.98 119.815 28.1235 119.762 28.2845C119.707 28.4456 119.682 28.6117 119.682 28.7777Z" fill="white"/>
<path d="M127.22 30.338C126.897 30.6601 126.52 30.8211 126.092 30.8211C125.83 30.8211 125.581 30.7683 125.347 30.6601C125.111 30.5544 124.907 30.4084 124.733 30.2272C124.565 30.041 124.431 29.8221 124.331 29.573C124.23 29.3188 124.18 29.047 124.18 28.7576C124.18 28.4758 124.23 28.2141 124.331 27.9725C124.431 27.7309 124.567 27.5195 124.743 27.3383C124.917 27.1521 125.121 27.0036 125.357 26.8954C125.599 26.7897 125.861 26.7344 126.143 26.7344C126.525 26.7344 126.85 26.8149 127.119 26.976C127.386 27.132 127.592 27.3434 127.733 27.6101L127.139 28.0429C127.038 27.8416 126.897 27.6906 126.716 27.59C126.535 27.4843 126.334 27.4289 126.112 27.4289C125.944 27.4289 125.79 27.4667 125.649 27.5396C125.508 27.6076 125.388 27.7057 125.287 27.8316C125.186 27.9523 125.106 28.0983 125.045 28.2644C124.99 28.4254 124.965 28.5966 124.965 28.7777C124.965 28.9665 124.995 29.1452 125.055 29.3112C125.116 29.4723 125.199 29.6132 125.307 29.734C125.413 29.8548 125.541 29.9529 125.69 30.0259C125.836 30.0939 125.994 30.1266 126.163 30.1266C126.55 30.1266 126.903 29.9429 127.22 29.573V29.2911H126.404V28.7174H127.864V30.7909H127.22V30.338Z" fill="white"/>
<path d="M129.992 26.7734L130.989 28.7061L131.995 26.7734H132.841L131.371 29.3906V30.7998H130.596V29.3805L129.137 26.7734H129.992Z" fill="white"/>
<defs>
<linearGradient id="paint0_linear_1531_2418" x1="37.8401" y1="0" x2="37.8401" y2="40.4712" gradientUnits="userSpaceOnUse">
<stop stop-color="#027FFF"/>
<stop offset="1" stop-color="#FF2D46"/>
</linearGradient>
<linearGradient id="paint1_linear_1531_2418" x1="37.8401" y1="0" x2="37.8401" y2="40.4712" gradientUnits="userSpaceOnUse">
<stop stop-color="#027FFF"/>
<stop offset="1" stop-color="#FF2D46"/>
</linearGradient>
</defs>
</svg>
