<svg width="40" height="40" viewBox="0 0 40 40" fill="none" xmlns="http://www.w3.org/2000/svg">
<path d="M8 5H32C32.7956 5 33.5587 5.31607 34.1213 5.87868C34.6839 6.44129 35 7.20435 35 8V27C35 27.7956 34.6839 28.5587 34.1213 29.1213C33.5587 29.6839 32.7956 30 32 30H26.7101C26.8987 29.3663 27 28.695 27 28C27 24.134 23.866 21 20 21C16.134 21 13 24.134 13 28C13 28.695 13.1013 29.3663 13.2899 30H8C7.20435 30 6.44129 29.6839 5.87868 29.1213C5.31607 28.5587 5 27.7956 5 27V8C5 7.20435 5.31607 6.44129 5.87868 5.87868C6.44129 5.31607 7.20435 5 8 5Z" fill="url(#paint0_linear_1_2986)" fill-opacity="0.24"/>
<path d="M8 30C7.20435 30 6.44129 29.6839 5.87868 29.1213C5.31607 28.5587 5 27.7956 5 27V8C5 7.20435 5.31607 6.44129 5.87868 5.87868C6.44129 5.31607 7.20435 5 8 5H32C32.7956 5 33.5587 5.31607 34.1213 5.87868C34.6839 6.44129 35 7.20435 35 8V27C35 27.7956 34.6839 28.5587 34.1213 29.1213C33.5587 29.6839 32.7956 30 32 30" stroke="white" stroke-linecap="round" stroke-linejoin="round"/>
<g opacity="0.4">
<path d="M25.524 16.5791C25.9968 16.8597 26.5333 17 27.1336 17C27.5131 17 27.8645 16.9451 28.188 16.8353C28.5146 16.7224 28.8023 16.5654 29.0511 16.3641C29.303 16.1597 29.5099 15.9187 29.6716 15.6412C29.8334 15.3606 29.9422 15.051 29.9982 14.7124H28.9438C28.8972 14.932 28.8178 15.1257 28.7059 15.2935C28.597 15.4582 28.4617 15.5985 28.3 15.7144C28.1382 15.8303 27.9594 15.9172 27.7635 15.9752C27.5675 16.0331 27.3607 16.0621 27.143 16.0621C26.7448 16.0621 26.3871 15.9645 26.0699 15.7693C25.7526 15.5741 25.5023 15.2874 25.3188 14.9092C25.1353 14.5279 25.0435 14.0597 25.0435 13.5046C25.0435 12.9525 25.1353 12.4858 25.3188 12.1046C25.5023 11.7203 25.7526 11.4305 26.0699 11.2353C26.3871 11.037 26.7448 10.9379 27.143 10.9379C27.3638 10.9379 27.5722 10.9684 27.7681 11.0294C27.9672 11.0874 28.146 11.1758 28.3046 11.2948C28.4664 11.4107 28.6017 11.554 28.7105 11.7248C28.8225 11.8926 28.9003 12.0878 28.9438 12.3105H29.9982C29.9391 11.9475 29.8256 11.6227 29.6576 11.3359C29.4928 11.0492 29.2828 10.8068 29.0278 10.6085C28.7727 10.4102 28.4835 10.2593 28.16 10.1556C27.8397 10.0519 27.4975 10 27.1336 10C26.5364 10 26.0015 10.1403 25.5287 10.4209C25.0559 10.7015 24.6843 11.1041 24.4137 11.6288C24.1431 12.1503 24.0078 12.7756 24.0078 13.5046C24.0078 14.2275 24.1415 14.8512 24.409 15.3758C24.6796 15.8974 25.0513 16.2985 25.524 16.5791Z" fill="white"/>
<path fill-rule="evenodd" clip-rule="evenodd" d="M11.75 15.0996L11.115 16.9068H10L12.5053 10.0898H13.7137L16.2097 16.9068H15.0993L14.4614 15.0996H11.75ZM13.1305 11.3297L14.1577 14.2395H12.0522L13.0745 11.3297H13.1305Z" fill="white"/>
<path fill-rule="evenodd" clip-rule="evenodd" d="M21.5874 16.6643C21.2421 16.826 20.7989 16.9068 20.2577 16.9068H17.5938V10.0898H20.1458C20.6372 10.0898 21.0446 10.1691 21.3681 10.3277C21.6916 10.4863 21.9326 10.7014 22.0913 10.9728C22.253 11.2412 22.3339 11.5432 22.3339 11.8787C22.3339 12.1624 22.2794 12.4018 22.1706 12.597C22.0648 12.7922 21.9233 12.9478 21.746 13.0637C21.5687 13.1796 21.3743 13.265 21.1628 13.3199V13.3839C21.393 13.3961 21.6185 13.4693 21.8393 13.6035C22.0601 13.7377 22.2421 13.9284 22.3852 14.1754C22.5314 14.4194 22.6044 14.7183 22.6044 15.0722C22.6044 15.4199 22.5205 15.7325 22.3525 16.0101C22.1877 16.2846 21.9326 16.5027 21.5874 16.6643ZM20.9249 14.0016C20.7196 13.8948 20.4786 13.8414 20.2017 13.8414H18.6434V16.0284H20.1551C20.659 16.0284 21.0198 15.9323 21.2375 15.7401C21.4552 15.548 21.5641 15.3085 21.5641 15.0218C21.5641 14.8053 21.5081 14.6085 21.3961 14.4316C21.2872 14.2517 21.1302 14.1083 20.9249 14.0016ZM20.9995 11.2565C20.8005 11.0643 20.4941 10.9682 20.0804 10.9682H18.6434V13.0408H20.0525C20.2857 13.0408 20.4972 12.9966 20.687 12.9081C20.8767 12.8197 21.026 12.6946 21.1348 12.5329C21.2468 12.3682 21.3028 12.1776 21.3028 11.961C21.3028 11.6804 21.2017 11.4456 20.9995 11.2565Z" fill="white"/>
</g>
<path d="M27 28C27 29.7135 26.3843 31.2832 25.3621 32.5C24.078 34.0285 22.1525 35 20 35C16.134 35 13 31.866 13 28C13 24.134 16.134 21 20 21C23.866 21 27 24.134 27 28Z" fill="url(#paint1_linear_1_2986)" fill-opacity="0.24"/>
<path d="M25.3621 32.5C26.3843 31.2832 27 29.7135 27 28C27 24.134 23.866 21 20 21C16.134 21 13 24.134 13 28C13 31.866 16.134 35 20 35C22.1525 35 24.078 34.0285 25.3621 32.5ZM25.3621 32.5L28.8621 36" stroke="white" stroke-linecap="round" stroke-linejoin="round"/>
<path d="M17 28L19 30L23 26" stroke="white" stroke-linecap="round" stroke-linejoin="round"/>
<defs>
<linearGradient id="paint0_linear_1_2986" x1="20" y1="5" x2="20" y2="30" gradientUnits="userSpaceOnUse">
<stop stop-color="white" stop-opacity="0"/>
<stop offset="1" stop-color="white"/>
</linearGradient>
<linearGradient id="paint1_linear_1_2986" x1="20" y1="21" x2="20" y2="35" gradientUnits="userSpaceOnUse">
<stop stop-color="white" stop-opacity="0"/>
<stop offset="1" stop-color="white"/>
</linearGradient>
</defs>
</svg>
