<svg width="59" height="59" viewBox="0 0 59 59" fill="none" xmlns="http://www.w3.org/2000/svg">
<path d="M2.45558 20.3915C4.47205 11.8079 11.177 5.10753 19.7619 3.09681C25.9618 1.64469 32.4137 1.64686 38.6127 3.10313C47.1963 5.1196 53.8967 11.8245 55.9074 20.4095C57.3595 26.6094 57.3574 33.0613 55.9011 39.2602C53.8846 47.8438 47.1797 54.5442 38.5948 56.555C32.3948 58.0071 25.943 58.0049 19.744 56.5486C11.1604 54.5322 4.45998 47.8273 2.44926 39.2423C0.99714 33.0424 0.999302 26.5905 2.45558 20.3915Z" stroke="#1668E8" stroke-width="2.18771"/>
<path d="M18.3607 29.8225L39.9958 29.8298M39.9958 29.8298L32.2716 22.1004M39.9958 29.8298L32.2664 37.554" stroke="#1668E8" stroke-width="2.18771" stroke-linecap="round" stroke-linejoin="round"/>
</svg>
