<svg width="59" height="59" viewBox="0 0 59 59" fill="none" xmlns="http://www.w3.org/2000/svg">
<path d="M56.5483 20.3915C54.5319 11.8079 47.8269 5.10753 39.242 3.09681C33.0421 1.64469 26.5902 1.64686 20.3912 3.10313C11.8076 5.1196 5.10721 11.8245 3.0965 20.4095C1.64438 26.6094 1.64655 33.0613 3.10282 39.2602C5.11929 47.8438 11.8242 54.5442 20.4092 56.555C26.6091 58.0071 33.0609 58.0049 39.2599 56.5486C47.8435 54.5322 54.5439 47.8273 56.5546 39.2423C58.0068 33.0424 58.0046 26.5905 56.5483 20.3915Z" stroke="#14244C" stroke-width="2.18771"/>
<path d="M40.6432 29.8225L19.0081 29.8298M19.0081 29.8298L26.7323 22.1004M19.0081 29.8298L26.7375 37.554" stroke="#14244C" stroke-width="2.18771" stroke-linecap="round" stroke-linejoin="round"/>
</svg>
